<mxfile host="app.diagrams.net" modified="2024-04-23T06:44:09.271Z" agent="Mozilla/5.0 (Windows NT 10.0; Win64; x64; rv:125.0) Gecko/20100101 Firefox/125.0" etag="jM53XzBLX902xVixDb0k" version="24.2.8" type="device">
  <diagram name="Sivu-1" id="lsQ-OULjhNZgTkchEsRg">
    <mxGraphModel dx="8060" dy="3970" grid="1" gridSize="10" guides="1" tooltips="1" connect="1" arrows="1" fold="1" page="1" pageScale="1" pageWidth="900" pageHeight="1600" math="0" shadow="0">
      <root>
        <mxCell id="0" />
        <mxCell id="1" parent="0" />
        <mxCell id="1OpWcTr0ya9Bk3IJLdpR-1" value="&lt;div&gt;MEGA-LCD_interface&lt;/div&gt;" style="rounded=0;whiteSpace=wrap;html=1;" vertex="1" parent="1">
          <mxGeometry x="-900" width="120" height="60" as="geometry" />
        </mxCell>
        <mxCell id="1OpWcTr0ya9Bk3IJLdpR-2" style="edgeStyle=orthogonalEdgeStyle;rounded=0;orthogonalLoop=1;jettySize=auto;html=1;" edge="1" parent="1" source="1OpWcTr0ya9Bk3IJLdpR-3" target="1OpWcTr0ya9Bk3IJLdpR-5">
          <mxGeometry relative="1" as="geometry" />
        </mxCell>
        <mxCell id="1OpWcTr0ya9Bk3IJLdpR-3" value="Arvojen asetus" style="rounded=1;whiteSpace=wrap;html=1;fillColor=#e1d5e7;strokeColor=#9673a6;" vertex="1" parent="1">
          <mxGeometry x="-840" y="80" width="60" height="60" as="geometry" />
        </mxCell>
        <mxCell id="1OpWcTr0ya9Bk3IJLdpR-4" style="edgeStyle=orthogonalEdgeStyle;rounded=0;orthogonalLoop=1;jettySize=auto;html=1;entryX=0.5;entryY=0;entryDx=0;entryDy=0;" edge="1" parent="1" source="1OpWcTr0ya9Bk3IJLdpR-5" target="1OpWcTr0ya9Bk3IJLdpR-7">
          <mxGeometry relative="1" as="geometry" />
        </mxCell>
        <mxCell id="1OpWcTr0ya9Bk3IJLdpR-5" value="&lt;div&gt;LCD ja keypad&amp;nbsp; inputtien asetus&lt;br&gt;&lt;/div&gt;" style="rounded=1;whiteSpace=wrap;html=1;fillColor=#e1d5e7;strokeColor=#9673a6;" vertex="1" parent="1">
          <mxGeometry x="-860" y="190" width="100" height="60" as="geometry" />
        </mxCell>
        <mxCell id="1OpWcTr0ya9Bk3IJLdpR-6" style="edgeStyle=orthogonalEdgeStyle;rounded=0;orthogonalLoop=1;jettySize=auto;html=1;" edge="1" parent="1" source="1OpWcTr0ya9Bk3IJLdpR-7" target="1OpWcTr0ya9Bk3IJLdpR-13">
          <mxGeometry relative="1" as="geometry">
            <Array as="points">
              <mxPoint x="-810" y="810" />
            </Array>
          </mxGeometry>
        </mxCell>
        <mxCell id="1OpWcTr0ya9Bk3IJLdpR-7" value="&lt;font style=&quot;font-size: 14px;&quot;&gt;setup()&lt;/font&gt;" style="swimlane;fontStyle=0;childLayout=stackLayout;horizontal=1;startSize=26;fillColor=#e1d5e7;horizontalStack=0;resizeParent=1;resizeParentMax=0;resizeLast=0;collapsible=1;marginBottom=0;html=1;strokeColor=#9673a6;" vertex="1" parent="1">
          <mxGeometry x="-890" y="310" width="160" height="156" as="geometry" />
        </mxCell>
        <mxCell id="1OpWcTr0ya9Bk3IJLdpR-8" value="Serial.begin(9600)" style="text;strokeColor=none;fillColor=none;align=left;verticalAlign=top;spacingLeft=4;spacingRight=4;overflow=hidden;rotatable=0;points=[[0,0.5],[1,0.5]];portConstraint=eastwest;whiteSpace=wrap;html=1;" vertex="1" parent="1OpWcTr0ya9Bk3IJLdpR-7">
          <mxGeometry y="26" width="160" height="26" as="geometry" />
        </mxCell>
        <mxCell id="1OpWcTr0ya9Bk3IJLdpR-9" value="lcd.init()" style="text;strokeColor=none;fillColor=none;align=left;verticalAlign=top;spacingLeft=4;spacingRight=4;overflow=hidden;rotatable=0;points=[[0,0.5],[1,0.5]];portConstraint=eastwest;whiteSpace=wrap;html=1;" vertex="1" parent="1OpWcTr0ya9Bk3IJLdpR-7">
          <mxGeometry y="52" width="160" height="26" as="geometry" />
        </mxCell>
        <mxCell id="1OpWcTr0ya9Bk3IJLdpR-10" value="lcd.backLight" style="text;strokeColor=none;fillColor=none;align=left;verticalAlign=top;spacingLeft=4;spacingRight=4;overflow=hidden;rotatable=0;points=[[0,0.5],[1,0.5]];portConstraint=eastwest;whiteSpace=wrap;html=1;" vertex="1" parent="1OpWcTr0ya9Bk3IJLdpR-7">
          <mxGeometry y="78" width="160" height="26" as="geometry" />
        </mxCell>
        <mxCell id="1OpWcTr0ya9Bk3IJLdpR-11" value="lcd.createChar(leftArrow)" style="text;strokeColor=none;fillColor=none;align=left;verticalAlign=top;spacingLeft=4;spacingRight=4;overflow=hidden;rotatable=0;points=[[0,0.5],[1,0.5]];portConstraint=eastwest;whiteSpace=wrap;html=1;" vertex="1" parent="1OpWcTr0ya9Bk3IJLdpR-7">
          <mxGeometry y="104" width="160" height="26" as="geometry" />
        </mxCell>
        <mxCell id="1OpWcTr0ya9Bk3IJLdpR-12" value="lcd.createChar(rightArrow)" style="text;strokeColor=none;fillColor=none;align=left;verticalAlign=top;spacingLeft=4;spacingRight=4;overflow=hidden;rotatable=0;points=[[0,0.5],[1,0.5]];portConstraint=eastwest;whiteSpace=wrap;html=1;" vertex="1" parent="1OpWcTr0ya9Bk3IJLdpR-7">
          <mxGeometry y="130" width="160" height="26" as="geometry" />
        </mxCell>
        <mxCell id="1OpWcTr0ya9Bk3IJLdpR-13" value="&lt;font style=&quot;font-size: 30px;&quot;&gt;loop()&lt;/font&gt;" style="swimlane;whiteSpace=wrap;html=1;startSize=50;fillColor=#ffe6cc;strokeColor=#d79b00;" vertex="1" parent="1">
          <mxGeometry x="-630" y="60" width="650" height="1430" as="geometry" />
        </mxCell>
        <mxCell id="1OpWcTr0ya9Bk3IJLdpR-14" value="Infos" style="swimlane;fontSize=25;startSize=50;" vertex="1" parent="1OpWcTr0ya9Bk3IJLdpR-13">
          <mxGeometry x="1920" y="1610" width="1130" height="1150" as="geometry" />
        </mxCell>
        <mxCell id="1OpWcTr0ya9Bk3IJLdpR-15" value="&lt;font style=&quot;font-size: 9px;&quot;&gt;Serial.write(byte2)&lt;/font&gt;" style="ellipse;whiteSpace=wrap;html=1;" vertex="1" parent="1OpWcTr0ya9Bk3IJLdpR-14">
          <mxGeometry x="390" y="936" width="80" height="60" as="geometry" />
        </mxCell>
        <mxCell id="1OpWcTr0ya9Bk3IJLdpR-16" value="&lt;font style=&quot;font-size: 9px;&quot;&gt;Serial.write(byte3)&lt;/font&gt;" style="ellipse;whiteSpace=wrap;html=1;" vertex="1" parent="1OpWcTr0ya9Bk3IJLdpR-14">
          <mxGeometry x="390" y="1016" width="80" height="60" as="geometry" />
        </mxCell>
        <mxCell id="1OpWcTr0ya9Bk3IJLdpR-17" value="&lt;div align=&quot;left&quot; style=&quot;font-size: 17px;&quot;&gt;&lt;font style=&quot;font-size: 17px;&quot;&gt;pageInfo(){&lt;font style=&quot;font-size: 17px;&quot;&gt;&lt;br&gt;&lt;/font&gt;&lt;/font&gt;&lt;/div&gt;&lt;div align=&quot;left&quot; style=&quot;font-size: 15px;&quot;&gt;&lt;font style=&quot;font-size: 15px;&quot;&gt;&amp;nbsp;&amp;nbsp; switch(page)&lt;/font&gt;&lt;/div&gt;&lt;div align=&quot;left&quot; style=&quot;font-size: 17px;&quot;&gt;&lt;font style=&quot;font-size: 17px;&quot;&gt;}&lt;font style=&quot;font-size: 17px;&quot;&gt;&lt;br&gt;&lt;/font&gt;&lt;/font&gt;&lt;/div&gt;" style="swimlane;fontStyle=0;childLayout=stackLayout;horizontal=1;startSize=66;horizontalStack=0;resizeParent=1;resizeParentMax=0;resizeLast=0;collapsible=1;marginBottom=0;whiteSpace=wrap;html=1;fillColor=#dae8fc;strokeColor=#6c8ebf;align=left;" vertex="1" parent="1OpWcTr0ya9Bk3IJLdpR-14">
          <mxGeometry x="90" y="100" width="250" height="990" as="geometry" />
        </mxCell>
        <mxCell id="1OpWcTr0ya9Bk3IJLdpR-18" value="&lt;div style=&quot;font-size: 17px;&quot;&gt;&lt;font style=&quot;font-size: 17px;&quot;&gt;case page1:&lt;/font&gt;&lt;/div&gt;&lt;div style=&quot;font-size: 17px;&quot;&gt;&lt;font style=&quot;font-size: 17px;&quot;&gt;&lt;font style=&quot;font-size: 17px;&quot;&gt;&amp;nbsp;&amp;nbsp;&amp;nbsp; showPageNumber()&lt;/font&gt;&lt;font style=&quot;font-size: 17px;&quot;&gt;&lt;br&gt;&lt;/font&gt;&lt;/font&gt;&lt;/div&gt;&lt;div style=&quot;font-size: 17px;&quot;&gt;&lt;font style=&quot;font-size: 17px;&quot;&gt;&lt;font style=&quot;font-size: 17px;&quot;&gt;&amp;nbsp;&amp;nbsp;&amp;nbsp; lcd.print(&#39;1&#39;)&lt;br&gt;&lt;/font&gt;&lt;/font&gt;&lt;/div&gt;&lt;div style=&quot;font-size: 17px;&quot;&gt;&lt;font style=&quot;font-size: 17px;&quot;&gt;&lt;font style=&quot;font-size: 17px;&quot;&gt;&amp;nbsp;&amp;nbsp;&amp;nbsp; lcd.print(&#39;2&#39;)&lt;/font&gt;&lt;/font&gt;&lt;/div&gt;" style="text;align=left;verticalAlign=middle;spacingLeft=4;spacingRight=4;overflow=hidden;points=[[0,0.5],[1,0.5]];portConstraint=eastwest;rotatable=0;whiteSpace=wrap;html=1;fillColor=#f5f5f5;fontColor=#333333;strokeColor=#666666;" vertex="1" parent="1OpWcTr0ya9Bk3IJLdpR-17">
          <mxGeometry y="66" width="250" height="154" as="geometry" />
        </mxCell>
        <mxCell id="1OpWcTr0ya9Bk3IJLdpR-19" value="&lt;div style=&quot;font-size: 17px;&quot;&gt;&lt;font style=&quot;font-size: 17px;&quot;&gt;case page2:&lt;/font&gt;&lt;/div&gt;&lt;div style=&quot;font-size: 17px;&quot;&gt;&lt;font style=&quot;font-size: 17px;&quot;&gt;&lt;font style=&quot;font-size: 17px;&quot;&gt;&amp;nbsp;&amp;nbsp; showPageNumber()&lt;/font&gt;&lt;font style=&quot;font-size: 17px;&quot;&gt;&lt;br&gt;&lt;/font&gt;&lt;/font&gt;&lt;/div&gt;&lt;div style=&quot;font-size: 17px;&quot;&gt;&lt;font style=&quot;font-size: 17px;&quot;&gt;&lt;font style=&quot;font-size: 17px;&quot;&gt;&amp;nbsp;&amp;nbsp; lcd.print(&#39;1&#39;)&lt;br&gt;&lt;/font&gt;&lt;/font&gt;&lt;/div&gt;" style="text;align=left;verticalAlign=middle;spacingLeft=4;spacingRight=4;overflow=hidden;points=[[0,0.5],[1,0.5]];portConstraint=eastwest;rotatable=0;whiteSpace=wrap;html=1;fillColor=#f5f5f5;fontColor=#333333;strokeColor=#666666;" vertex="1" parent="1OpWcTr0ya9Bk3IJLdpR-17">
          <mxGeometry y="220" width="250" height="140" as="geometry" />
        </mxCell>
        <mxCell id="1OpWcTr0ya9Bk3IJLdpR-20" value="&lt;div style=&quot;font-size: 17px;&quot;&gt;&lt;font style=&quot;font-size: 17px;&quot;&gt;case pageD:&lt;/font&gt;&lt;/div&gt;&lt;div style=&quot;font-size: 17px;&quot;&gt;&lt;font style=&quot;font-size: 17px;&quot;&gt;&lt;font style=&quot;font-size: 17px;&quot;&gt;&amp;nbsp;&amp;nbsp; lcd.print(currentTime)&lt;br&gt;&lt;/font&gt;&lt;/font&gt;&lt;/div&gt;&lt;div style=&quot;font-size: 17px;&quot;&gt;&lt;font style=&quot;font-size: 17px;&quot;&gt;&lt;font style=&quot;font-size: 17px;&quot;&gt;&amp;nbsp;&amp;nbsp; lcd.print(timeLimit)&lt;/font&gt;&lt;/font&gt;&lt;/div&gt;&lt;div style=&quot;font-size: 17px;&quot;&gt;&lt;font style=&quot;font-size: 17px;&quot;&gt;&lt;font style=&quot;font-size: 17px;&quot;&gt;&amp;nbsp;&amp;nbsp; lcd.print(currentStep)&lt;/font&gt;&lt;/font&gt;&lt;/div&gt;" style="text;align=left;verticalAlign=middle;spacingLeft=4;spacingRight=4;overflow=hidden;points=[[0,0.5],[1,0.5]];portConstraint=eastwest;rotatable=0;whiteSpace=wrap;html=1;fillColor=#f5f5f5;fontColor=#333333;strokeColor=#666666;" vertex="1" parent="1OpWcTr0ya9Bk3IJLdpR-17">
          <mxGeometry y="360" width="250" height="140" as="geometry" />
        </mxCell>
        <mxCell id="1OpWcTr0ya9Bk3IJLdpR-21" value="&lt;div style=&quot;font-size: 17px;&quot;&gt;&lt;font style=&quot;font-size: 17px;&quot;&gt;case pageT:&lt;/font&gt;&lt;/div&gt;&lt;div style=&quot;font-size: 17px;&quot;&gt;&lt;font style=&quot;font-size: 17px;&quot;&gt;&amp;nbsp;&amp;nbsp; if(!isTyping){&lt;/font&gt;&lt;/div&gt;&lt;div style=&quot;font-size: 17px;&quot;&gt;&lt;font style=&quot;font-size: 17px;&quot;&gt;&amp;nbsp;&amp;nbsp;&amp;nbsp;&amp;nbsp;&amp;nbsp; lcd.print(timeLimit)&lt;br&gt;&lt;/font&gt;&lt;/div&gt;&lt;div style=&quot;font-size: 17px;&quot;&gt;&lt;font style=&quot;font-size: 17px;&quot;&gt;&amp;nbsp;&amp;nbsp;&amp;nbsp;&amp;nbsp;&amp;nbsp; lcd.print(&#39;0&#39;)&lt;/font&gt;&lt;/div&gt;&lt;div style=&quot;font-size: 17px;&quot;&gt;&lt;font style=&quot;font-size: 17px;&quot;&gt;&amp;nbsp;&amp;nbsp; }&lt;br&gt;&lt;/font&gt;&lt;/div&gt;&lt;div style=&quot;font-size: 17px;&quot;&gt;&lt;font style=&quot;font-size: 17px;&quot;&gt;&lt;br&gt;&lt;/font&gt;&lt;/div&gt;&lt;div style=&quot;font-size: 17px;&quot;&gt;&lt;font style=&quot;font-size: 17px;&quot;&gt;&amp;nbsp;&amp;nbsp; if(isTyping){&lt;/font&gt;&lt;/div&gt;&lt;div style=&quot;font-size: 17px;&quot;&gt;&lt;font style=&quot;font-size: 17px;&quot;&gt;&amp;nbsp;&amp;nbsp; }&lt;br&gt;&lt;/font&gt;&lt;/div&gt;&lt;div style=&quot;font-size: 17px;&quot;&gt;&lt;font style=&quot;font-size: 17px;&quot;&gt;&lt;br&gt;&lt;/font&gt;&lt;/div&gt;&lt;div style=&quot;font-size: 17px;&quot;&gt;&lt;font style=&quot;font-size: 17px;&quot;&gt;&lt;font style=&quot;font-size: 17px;&quot;&gt;&amp;nbsp;&amp;nbsp; lcd.print(currentTime)&lt;br&gt;&lt;/font&gt;&lt;/font&gt;&lt;/div&gt;&lt;div style=&quot;font-size: 17px;&quot;&gt;&lt;font style=&quot;font-size: 17px;&quot;&gt;&lt;font style=&quot;font-size: 17px;&quot;&gt;&amp;nbsp;&amp;nbsp; lcd.print(timeLimit)&lt;/font&gt;&lt;/font&gt;&lt;/div&gt;&lt;div style=&quot;font-size: 17px;&quot;&gt;&lt;font style=&quot;font-size: 17px;&quot;&gt;&lt;font style=&quot;font-size: 17px;&quot;&gt;&amp;nbsp;&amp;nbsp; lcd.print(currentStep)&lt;/font&gt;&lt;/font&gt;&lt;/div&gt;" style="text;align=left;verticalAlign=middle;spacingLeft=4;spacingRight=4;overflow=hidden;points=[[0,0.5],[1,0.5]];portConstraint=eastwest;rotatable=0;whiteSpace=wrap;html=1;fillColor=#f5f5f5;fontColor=#333333;strokeColor=#666666;" vertex="1" parent="1OpWcTr0ya9Bk3IJLdpR-17">
          <mxGeometry y="500" width="250" height="274" as="geometry" />
        </mxCell>
        <mxCell id="1OpWcTr0ya9Bk3IJLdpR-22" value="&lt;div style=&quot;font-size: 17px;&quot;&gt;&lt;font style=&quot;font-size: 17px;&quot;&gt;case pageF:&lt;/font&gt;&lt;/div&gt;&lt;div style=&quot;font-size: 17px;&quot;&gt;&lt;font style=&quot;font-size: 17px;&quot;&gt;&amp;nbsp;&amp;nbsp; if(!isForce){&lt;/font&gt;&lt;/div&gt;&lt;div style=&quot;font-size: 17px;&quot;&gt;&lt;font style=&quot;font-size: 17px;&quot;&gt;&amp;nbsp;&amp;nbsp; lcd.print(&quot;OFF&quot;)&lt;br&gt;&lt;/font&gt;&lt;/div&gt;&lt;div style=&quot;font-size: 17px;&quot;&gt;&lt;font style=&quot;font-size: 17px;&quot;&gt;&amp;nbsp;&amp;nbsp; }&lt;br&gt;&lt;/font&gt;&lt;/div&gt;&lt;div style=&quot;font-size: 17px;&quot;&gt;&lt;font style=&quot;font-size: 17px;&quot;&gt;&amp;nbsp;&amp;nbsp; if(isForce (direction?) ){&lt;/font&gt;&lt;/div&gt;&lt;div style=&quot;font-size: 17px;&quot;&gt;&lt;font style=&quot;font-size: 17px;&quot;&gt;&amp;nbsp;&amp;nbsp; &lt;/font&gt;&lt;font style=&quot;font-size: 17px;&quot;&gt;&amp;nbsp;&amp;nbsp; lcd.print(&quot;ON&quot;)&lt;/font&gt;&lt;/div&gt;&lt;div style=&quot;font-size: 17px;&quot;&gt;&lt;font style=&quot;font-size: 17px;&quot;&gt;&amp;nbsp; &amp;nbsp; &amp;nbsp; lcd.print(directionarrows)&lt;/font&gt;&lt;/div&gt;&lt;div style=&quot;font-size: 17px;&quot;&gt;&lt;font style=&quot;font-size: 17px;&quot;&gt;&amp;nbsp;&amp;nbsp; }&lt;br&gt;&lt;/font&gt;&lt;/div&gt;" style="text;align=left;verticalAlign=middle;spacingLeft=4;spacingRight=4;overflow=hidden;points=[[0,0.5],[1,0.5]];portConstraint=eastwest;rotatable=0;whiteSpace=wrap;html=1;fillColor=#f5f5f5;fontColor=#333333;strokeColor=#666666;" vertex="1" parent="1OpWcTr0ya9Bk3IJLdpR-17">
          <mxGeometry y="774" width="250" height="216" as="geometry" />
        </mxCell>
        <mxCell id="1OpWcTr0ya9Bk3IJLdpR-23" value="" style="endArrow=classic;html=1;rounded=0;entryX=0;entryY=0.5;entryDx=0;entryDy=0;" edge="1" parent="1OpWcTr0ya9Bk3IJLdpR-14" target="1OpWcTr0ya9Bk3IJLdpR-15">
          <mxGeometry width="50" height="50" relative="1" as="geometry">
            <mxPoint x="360" y="966" as="sourcePoint" />
            <mxPoint x="290" y="936" as="targetPoint" />
          </mxGeometry>
        </mxCell>
        <mxCell id="1OpWcTr0ya9Bk3IJLdpR-24" value="" style="endArrow=classic;html=1;rounded=0;entryX=0;entryY=0.5;entryDx=0;entryDy=0;" edge="1" parent="1OpWcTr0ya9Bk3IJLdpR-14" target="1OpWcTr0ya9Bk3IJLdpR-16">
          <mxGeometry width="50" height="50" relative="1" as="geometry">
            <mxPoint x="360" y="1046" as="sourcePoint" />
            <mxPoint x="400" y="986" as="targetPoint" />
          </mxGeometry>
        </mxCell>
        <mxCell id="1OpWcTr0ya9Bk3IJLdpR-25" value="" style="endArrow=none;html=1;rounded=0;startArrow=oval;startFill=1;exitX=0.56;exitY=0.5;exitDx=0;exitDy=0;exitPerimeter=0;" edge="1" parent="1OpWcTr0ya9Bk3IJLdpR-14" source="1OpWcTr0ya9Bk3IJLdpR-22">
          <mxGeometry width="50" height="50" relative="1" as="geometry">
            <mxPoint x="200" y="976" as="sourcePoint" />
            <mxPoint x="360" y="966" as="targetPoint" />
            <Array as="points">
              <mxPoint x="230" y="966" />
            </Array>
          </mxGeometry>
        </mxCell>
        <mxCell id="1OpWcTr0ya9Bk3IJLdpR-26" value="" style="endArrow=none;html=1;rounded=0;" edge="1" parent="1OpWcTr0ya9Bk3IJLdpR-14">
          <mxGeometry width="50" height="50" relative="1" as="geometry">
            <mxPoint x="360" y="966" as="sourcePoint" />
            <mxPoint x="360" y="1046" as="targetPoint" />
          </mxGeometry>
        </mxCell>
        <mxCell id="1OpWcTr0ya9Bk3IJLdpR-27" value="&lt;div align=&quot;left&quot; style=&quot;font-size: 17px;&quot;&gt;&lt;font style=&quot;font-size: 17px;&quot;&gt;showPageNumber()&lt;font style=&quot;font-size: 17px;&quot;&gt;&lt;br&gt;&lt;/font&gt;&lt;/font&gt;&lt;/div&gt;" style="swimlane;fontStyle=0;childLayout=stackLayout;horizontal=1;startSize=66;horizontalStack=0;resizeParent=1;resizeParentMax=0;resizeLast=0;collapsible=1;marginBottom=0;whiteSpace=wrap;html=1;fillColor=#dae8fc;strokeColor=#6c8ebf;align=left;" vertex="1" parent="1OpWcTr0ya9Bk3IJLdpR-14">
          <mxGeometry x="740" y="340" width="250" height="310" as="geometry" />
        </mxCell>
        <mxCell id="1OpWcTr0ya9Bk3IJLdpR-28" value="&lt;div style=&quot;font-size: 17px;&quot;&gt;&lt;font style=&quot;font-size: 17px;&quot;&gt;if(page = page1){&lt;/font&gt;&lt;/div&gt;&lt;div style=&quot;font-size: 17px;&quot;&gt;&lt;font style=&quot;font-size: 17px;&quot;&gt;&amp;nbsp;&amp;nbsp; lcd.print(&quot;P1&quot;)&lt;br&gt;&lt;/font&gt;&lt;/div&gt;&lt;div style=&quot;font-size: 17px;&quot;&gt;&lt;font style=&quot;font-size: 17px;&quot;&gt;&amp;nbsp;&amp;nbsp; lcd.print(&#39;0&#39;)&lt;/font&gt;&lt;/div&gt;&lt;div style=&quot;font-size: 17px;&quot;&gt;&lt;font style=&quot;font-size: 17px;&quot;&gt;}&lt;br&gt;&lt;/font&gt;&lt;/div&gt;&lt;div style=&quot;font-size: 17px;&quot;&gt;&lt;font style=&quot;font-size: 17px;&quot;&gt;&lt;br&gt;&lt;/font&gt;&lt;/div&gt;&lt;div style=&quot;font-size: 17px;&quot;&gt;&lt;font style=&quot;font-size: 17px;&quot;&gt;&lt;br&gt;&lt;/font&gt;&lt;/div&gt;" style="text;align=left;verticalAlign=middle;spacingLeft=4;spacingRight=4;overflow=hidden;points=[[0,0.5],[1,0.5]];portConstraint=eastwest;rotatable=0;whiteSpace=wrap;html=1;fillColor=#f5f5f5;fontColor=#333333;strokeColor=#666666;" vertex="1" parent="1OpWcTr0ya9Bk3IJLdpR-27">
          <mxGeometry y="66" width="250" height="104" as="geometry" />
        </mxCell>
        <mxCell id="1OpWcTr0ya9Bk3IJLdpR-29" value="&lt;div style=&quot;font-size: 17px;&quot;&gt;&lt;font style=&quot;font-size: 17px;&quot;&gt;if(page = page2){&lt;/font&gt;&lt;/div&gt;&lt;div style=&quot;font-size: 17px;&quot;&gt;&lt;font style=&quot;font-size: 17px;&quot;&gt;&amp;nbsp;&amp;nbsp; lcd.print(&quot;P2&quot;)&lt;br&gt;&lt;/font&gt;&lt;/div&gt;&lt;div style=&quot;font-size: 17px;&quot;&gt;&lt;font style=&quot;font-size: 17px;&quot;&gt;&amp;nbsp;&amp;nbsp; lcd.print(&#39;0&#39;)&lt;/font&gt;&lt;/div&gt;&lt;font style=&quot;font-size: 17px;&quot;&gt;}&lt;/font&gt;" style="text;align=left;verticalAlign=middle;spacingLeft=4;spacingRight=4;overflow=hidden;points=[[0,0.5],[1,0.5]];portConstraint=eastwest;rotatable=0;whiteSpace=wrap;html=1;fillColor=#f5f5f5;fontColor=#333333;strokeColor=#666666;" vertex="1" parent="1OpWcTr0ya9Bk3IJLdpR-27">
          <mxGeometry y="170" width="250" height="140" as="geometry" />
        </mxCell>
        <mxCell id="1OpWcTr0ya9Bk3IJLdpR-30" style="edgeStyle=orthogonalEdgeStyle;rounded=0;orthogonalLoop=1;jettySize=auto;html=1;" edge="1" parent="1OpWcTr0ya9Bk3IJLdpR-13" source="1OpWcTr0ya9Bk3IJLdpR-31" target="1OpWcTr0ya9Bk3IJLdpR-32">
          <mxGeometry relative="1" as="geometry" />
        </mxCell>
        <mxCell id="1OpWcTr0ya9Bk3IJLdpR-31" value="&lt;u&gt;&lt;font style=&quot;font-size: 16px;&quot;&gt;if(!started)&lt;/font&gt;&lt;/u&gt;" style="rounded=0;whiteSpace=wrap;html=1;fillColor=#e1d5e7;strokeColor=#9673a6;" vertex="1" parent="1OpWcTr0ya9Bk3IJLdpR-13">
          <mxGeometry x="105" y="120" width="110" height="58" as="geometry" />
        </mxCell>
        <mxCell id="1OpWcTr0ya9Bk3IJLdpR-32" value="start()" style="swimlane;fontStyle=0;childLayout=stackLayout;horizontal=1;startSize=30;horizontalStack=0;resizeParent=1;resizeParentMax=0;resizeLast=0;collapsible=1;marginBottom=0;whiteSpace=wrap;html=1;fillColor=#e1d5e7;strokeColor=#9673a6;" vertex="1" parent="1OpWcTr0ya9Bk3IJLdpR-13">
          <mxGeometry x="80" y="260" width="160" height="160" as="geometry" />
        </mxCell>
        <mxCell id="1OpWcTr0ya9Bk3IJLdpR-33" value="&lt;font style=&quot;font-size: 13px;&quot;&gt;Serial.print(&quot;Tervetuloa!&quot;);&lt;/font&gt;" style="text;strokeColor=none;fillColor=none;align=left;verticalAlign=middle;spacingLeft=4;spacingRight=4;overflow=hidden;points=[[0,0.5],[1,0.5]];portConstraint=eastwest;rotatable=0;whiteSpace=wrap;html=1;" vertex="1" parent="1OpWcTr0ya9Bk3IJLdpR-32">
          <mxGeometry y="30" width="160" height="30" as="geometry" />
        </mxCell>
        <mxCell id="1OpWcTr0ya9Bk3IJLdpR-34" value="&lt;div align=&quot;left&quot;&gt;&lt;span style=&quot;font-size: 13px;&quot;&gt;delay(1000)&lt;/span&gt;&lt;/div&gt;" style="text;strokeColor=none;fillColor=none;align=left;verticalAlign=middle;spacingLeft=4;spacingRight=4;overflow=hidden;points=[[0,0.5],[1,0.5]];portConstraint=eastwest;rotatable=0;whiteSpace=wrap;html=1;" vertex="1" parent="1OpWcTr0ya9Bk3IJLdpR-32">
          <mxGeometry y="60" width="160" height="30" as="geometry" />
        </mxCell>
        <mxCell id="1OpWcTr0ya9Bk3IJLdpR-35" value="&lt;u&gt;&lt;font style=&quot;font-size: 15px;&quot;&gt;&lt;font style=&quot;font-size: 15px;&quot;&gt;page&amp;nbsp; =&amp;nbsp; page1;&lt;/font&gt;&lt;/font&gt;&lt;/u&gt;" style="text;strokeColor=none;fillColor=none;align=left;verticalAlign=middle;spacingLeft=4;spacingRight=4;overflow=hidden;points=[[0,0.5],[1,0.5]];portConstraint=eastwest;rotatable=0;whiteSpace=wrap;html=1;" vertex="1" parent="1OpWcTr0ya9Bk3IJLdpR-32">
          <mxGeometry y="90" width="160" height="30" as="geometry" />
        </mxCell>
        <mxCell id="1OpWcTr0ya9Bk3IJLdpR-36" value="&lt;u&gt;&lt;font style=&quot;font-size: 15px;&quot;&gt;started&amp;nbsp; =&amp;nbsp; true;&lt;/font&gt;&lt;/u&gt;" style="text;strokeColor=none;fillColor=none;align=left;verticalAlign=middle;spacingLeft=4;spacingRight=4;overflow=hidden;points=[[0,0.5],[1,0.5]];portConstraint=eastwest;rotatable=0;whiteSpace=wrap;html=1;" vertex="1" parent="1OpWcTr0ya9Bk3IJLdpR-32">
          <mxGeometry y="120" width="160" height="40" as="geometry" />
        </mxCell>
        <mxCell id="1OpWcTr0ya9Bk3IJLdpR-37" style="edgeStyle=orthogonalEdgeStyle;rounded=0;orthogonalLoop=1;jettySize=auto;html=1;entryX=0;entryY=0.5;entryDx=0;entryDy=0;exitX=1;exitY=0.75;exitDx=0;exitDy=0;" edge="1" parent="1OpWcTr0ya9Bk3IJLdpR-13" source="1OpWcTr0ya9Bk3IJLdpR-38" target="1OpWcTr0ya9Bk3IJLdpR-42">
          <mxGeometry relative="1" as="geometry">
            <Array as="points">
              <mxPoint x="300" y="498" />
              <mxPoint x="300" y="785" />
            </Array>
          </mxGeometry>
        </mxCell>
        <mxCell id="1OpWcTr0ya9Bk3IJLdpR-38" value="" style="swimlane;whiteSpace=wrap;html=1;startSize=0;fillColor=#e1d5e7;strokeColor=#9673a6;" vertex="1" parent="1OpWcTr0ya9Bk3IJLdpR-13">
          <mxGeometry x="100" y="460" width="120" height="50" as="geometry">
            <mxRectangle x="200" y="370" width="140" height="30" as="alternateBounds" />
          </mxGeometry>
        </mxCell>
        <mxCell id="1OpWcTr0ya9Bk3IJLdpR-39" value="&lt;div align=&quot;left&quot;&gt;&lt;b&gt;started = true&lt;/b&gt;&lt;/div&gt;" style="text;html=1;align=left;verticalAlign=middle;resizable=0;points=[];autosize=1;strokeColor=none;fillColor=none;" vertex="1" parent="1OpWcTr0ya9Bk3IJLdpR-38">
          <mxGeometry x="10" width="100" height="30" as="geometry" />
        </mxCell>
        <mxCell id="1OpWcTr0ya9Bk3IJLdpR-40" value="&lt;div align=&quot;left&quot;&gt;&lt;b&gt;page = page1&lt;/b&gt;&lt;/div&gt;" style="text;html=1;align=left;verticalAlign=middle;resizable=0;points=[];autosize=1;strokeColor=none;fillColor=none;" vertex="1" parent="1OpWcTr0ya9Bk3IJLdpR-38">
          <mxGeometry x="10" y="20" width="100" height="30" as="geometry" />
        </mxCell>
        <mxCell id="1OpWcTr0ya9Bk3IJLdpR-41" style="edgeStyle=orthogonalEdgeStyle;rounded=0;orthogonalLoop=1;jettySize=auto;html=1;entryX=0.503;entryY=-0.011;entryDx=0;entryDy=0;entryPerimeter=0;" edge="1" parent="1OpWcTr0ya9Bk3IJLdpR-13" source="1OpWcTr0ya9Bk3IJLdpR-32" target="1OpWcTr0ya9Bk3IJLdpR-39">
          <mxGeometry relative="1" as="geometry">
            <Array as="points" />
          </mxGeometry>
        </mxCell>
        <mxCell id="1OpWcTr0ya9Bk3IJLdpR-42" value="&lt;font style=&quot;font-size: 15px;&quot;&gt;toInterface(page)&lt;/font&gt;" style="swimlane;whiteSpace=wrap;html=1;fillColor=#fad7ac;strokeColor=#b46504;startSize=30;" vertex="1" parent="1OpWcTr0ya9Bk3IJLdpR-13">
          <mxGeometry x="330" y="220" width="270" height="1150" as="geometry" />
        </mxCell>
        <mxCell id="1OpWcTr0ya9Bk3IJLdpR-43" value="&lt;font style=&quot;font-size: 15px;&quot;&gt;switch(page)&lt;/font&gt;" style="swimlane;fontStyle=0;childLayout=stackLayout;horizontal=1;startSize=50;horizontalStack=0;resizeParent=1;resizeParentMax=0;resizeLast=0;collapsible=1;marginBottom=0;whiteSpace=wrap;html=1;fillColor=#dae8fc;strokeColor=#6c8ebf;swimlaneFillColor=#ff0000;" vertex="1" parent="1OpWcTr0ya9Bk3IJLdpR-42">
          <mxGeometry x="65" y="60" width="140" height="1050" as="geometry" />
        </mxCell>
        <mxCell id="1OpWcTr0ya9Bk3IJLdpR-44" value="&lt;div style=&quot;font-size: 17px;&quot;&gt;&lt;font style=&quot;font-size: 17px;&quot;&gt;case page1:&lt;/font&gt;&lt;/div&gt;&lt;div style=&quot;font-size: 17px;&quot;&gt;&lt;font style=&quot;font-size: 17px;&quot;&gt;&lt;font style=&quot;font-size: 17px;&quot;&gt;&amp;nbsp;&amp;nbsp;&amp;nbsp;&amp;nbsp; toPage1();&lt;/font&gt;&lt;font style=&quot;font-size: 17px;&quot;&gt;&lt;br&gt;&lt;/font&gt;&lt;/font&gt;&lt;/div&gt;" style="text;align=left;verticalAlign=middle;spacingLeft=4;spacingRight=4;overflow=hidden;points=[[0,0.5],[1,0.5]];portConstraint=eastwest;rotatable=0;whiteSpace=wrap;html=1;fillColor=#f5f5f5;fontColor=#333333;strokeColor=#666666;" vertex="1" parent="1OpWcTr0ya9Bk3IJLdpR-43">
          <mxGeometry y="50" width="140" height="200" as="geometry" />
        </mxCell>
        <mxCell id="1OpWcTr0ya9Bk3IJLdpR-45" value="&lt;div style=&quot;font-size: 17px;&quot;&gt;&lt;font style=&quot;font-size: 17px;&quot;&gt;case page2:&lt;/font&gt;&lt;/div&gt;&lt;div style=&quot;font-size: 17px;&quot;&gt;&lt;font style=&quot;font-size: 17px;&quot;&gt;&amp;nbsp;&amp;nbsp;&amp;nbsp;&amp;nbsp; toPage2();&lt;br&gt;&lt;/font&gt;&lt;/div&gt;" style="text;strokeColor=#666666;fillColor=#f5f5f5;align=left;verticalAlign=middle;spacingLeft=4;spacingRight=4;overflow=hidden;points=[[0,0.5],[1,0.5]];portConstraint=eastwest;rotatable=0;whiteSpace=wrap;html=1;fontColor=#333333;" vertex="1" parent="1OpWcTr0ya9Bk3IJLdpR-43">
          <mxGeometry y="250" width="140" height="200" as="geometry" />
        </mxCell>
        <mxCell id="1OpWcTr0ya9Bk3IJLdpR-46" value="&lt;div style=&quot;font-size: 17px;&quot;&gt;&lt;font style=&quot;font-size: 17px;&quot;&gt;case pageT:&lt;/font&gt;&lt;/div&gt;&lt;div style=&quot;font-size: 17px;&quot;&gt;&lt;font style=&quot;font-size: 17px;&quot;&gt;&amp;nbsp; &amp;nbsp;&amp;nbsp; toPageT();&lt;br&gt;&lt;/font&gt;&lt;/div&gt;" style="text;strokeColor=#666666;fillColor=#f5f5f5;align=left;verticalAlign=middle;spacingLeft=4;spacingRight=4;overflow=hidden;points=[[0,0.5],[1,0.5]];portConstraint=eastwest;rotatable=0;whiteSpace=wrap;html=1;fontColor=#333333;" vertex="1" parent="1OpWcTr0ya9Bk3IJLdpR-43">
          <mxGeometry y="450" width="140" height="200" as="geometry" />
        </mxCell>
        <mxCell id="1OpWcTr0ya9Bk3IJLdpR-47" value="&lt;div style=&quot;font-size: 17px;&quot;&gt;&lt;font style=&quot;font-size: 17px;&quot;&gt;case pageD:&lt;/font&gt;&lt;/div&gt;&lt;div style=&quot;font-size: 17px;&quot;&gt;&lt;font style=&quot;font-size: 17px;&quot;&gt;&amp;nbsp; &amp;nbsp;&amp;nbsp; toPageD();&lt;br&gt;&lt;/font&gt;&lt;/div&gt;" style="text;strokeColor=#666666;fillColor=#f5f5f5;align=left;verticalAlign=middle;spacingLeft=4;spacingRight=4;overflow=hidden;points=[[0,0.5],[1,0.5]];portConstraint=eastwest;rotatable=0;whiteSpace=wrap;html=1;fontColor=#333333;" vertex="1" parent="1OpWcTr0ya9Bk3IJLdpR-43">
          <mxGeometry y="650" width="140" height="200" as="geometry" />
        </mxCell>
        <mxCell id="1OpWcTr0ya9Bk3IJLdpR-48" value="&lt;div style=&quot;font-size: 17px;&quot;&gt;&lt;font style=&quot;font-size: 17px;&quot;&gt;case pageF:&lt;/font&gt;&lt;/div&gt;&lt;div style=&quot;font-size: 17px;&quot;&gt;&lt;font style=&quot;font-size: 17px;&quot;&gt;&amp;nbsp; &amp;nbsp;&amp;nbsp; toPageF();&lt;br&gt;&lt;/font&gt;&lt;/div&gt;" style="text;align=left;verticalAlign=middle;spacingLeft=4;spacingRight=4;overflow=hidden;points=[[0,0.5],[1,0.5]];portConstraint=eastwest;rotatable=0;whiteSpace=wrap;html=1;fillColor=#f5f5f5;strokeColor=#666666;fontColor=#333333;" vertex="1" parent="1OpWcTr0ya9Bk3IJLdpR-43">
          <mxGeometry y="850" width="140" height="200" as="geometry" />
        </mxCell>
        <mxCell id="1OpWcTr0ya9Bk3IJLdpR-49" value="" style="endArrow=classic;html=1;rounded=0;entryX=1;entryY=0.5;entryDx=0;entryDy=0;dashed=1;dashPattern=12 12;fillColor=#fa6800;strokeColor=#000000;exitX=1;exitY=0.25;exitDx=0;exitDy=0;" edge="1" parent="1OpWcTr0ya9Bk3IJLdpR-13" source="1OpWcTr0ya9Bk3IJLdpR-38" target="1OpWcTr0ya9Bk3IJLdpR-31">
          <mxGeometry width="50" height="50" relative="1" as="geometry">
            <mxPoint x="200" y="445" as="sourcePoint" />
            <mxPoint x="610" y="460" as="targetPoint" />
            <Array as="points">
              <mxPoint x="300" y="473" />
              <mxPoint x="300" y="150" />
            </Array>
          </mxGeometry>
        </mxCell>
        <mxCell id="1OpWcTr0ya9Bk3IJLdpR-50" value="" style="endArrow=none;html=1;rounded=0;strokeWidth=3;fillColor=#fad9d5;strokeColor=#ae4132;" edge="1" parent="1OpWcTr0ya9Bk3IJLdpR-13">
          <mxGeometry width="50" height="50" relative="1" as="geometry">
            <mxPoint x="290" y="350" as="sourcePoint" />
            <mxPoint x="310" y="320" as="targetPoint" />
          </mxGeometry>
        </mxCell>
        <mxCell id="1OpWcTr0ya9Bk3IJLdpR-51" value="" style="endArrow=none;html=1;rounded=0;strokeWidth=3;fillColor=#fad9d5;strokeColor=#ae4132;" edge="1" parent="1OpWcTr0ya9Bk3IJLdpR-13">
          <mxGeometry width="50" height="50" relative="1" as="geometry">
            <mxPoint x="290" y="320" as="sourcePoint" />
            <mxPoint x="310" y="350" as="targetPoint" />
          </mxGeometry>
        </mxCell>
        <mxCell id="1OpWcTr0ya9Bk3IJLdpR-52" value="&lt;font style=&quot;font-size: 13px;&quot;&gt;void toPage1()&lt;/font&gt;" style="swimlane;fontStyle=0;childLayout=stackLayout;horizontal=1;startSize=30;horizontalStack=0;resizeParent=1;resizeParentMax=0;resizeLast=0;collapsible=1;marginBottom=0;whiteSpace=wrap;html=1;fillColor=#fad7ac;strokeColor=#b46504;" vertex="1" parent="1OpWcTr0ya9Bk3IJLdpR-13">
          <mxGeometry x="960" y="260" width="140" height="210" as="geometry" />
        </mxCell>
        <mxCell id="1OpWcTr0ya9Bk3IJLdpR-53" value="&lt;font style=&quot;font-size: 13px;&quot;&gt;page = page1&lt;/font&gt;" style="text;strokeColor=none;fillColor=none;align=left;verticalAlign=middle;spacingLeft=4;spacingRight=4;overflow=hidden;points=[[0,0.5],[1,0.5]];portConstraint=eastwest;rotatable=0;whiteSpace=wrap;html=1;" vertex="1" parent="1OpWcTr0ya9Bk3IJLdpR-52">
          <mxGeometry y="30" width="140" height="30" as="geometry" />
        </mxCell>
        <mxCell id="1OpWcTr0ya9Bk3IJLdpR-54" value="&lt;div style=&quot;font-size: 13px;&quot;&gt;&lt;font style=&quot;font-size: 13px;&quot;&gt;if(keyPressed == &#39;0&#39;) {&lt;/font&gt;&lt;/div&gt;&lt;div style=&quot;font-size: 13px;&quot;&gt;&lt;font style=&quot;font-size: 13px;&quot;&gt;&amp;nbsp;&amp;nbsp; toInterFace(page2)&lt;/font&gt;&lt;/div&gt;&lt;div style=&quot;font-size: 13px;&quot;&gt;&lt;font style=&quot;font-size: 13px;&quot;&gt;&lt;font style=&quot;font-size: 13px;&quot;&gt;}&lt;/font&gt;&lt;font style=&quot;font-size: 13px;&quot;&gt;&lt;br&gt;&lt;/font&gt;&lt;/font&gt;&lt;/div&gt;" style="text;strokeColor=#666666;fillColor=#f5f5f5;align=left;verticalAlign=middle;spacingLeft=4;spacingRight=4;overflow=hidden;points=[[0,0.5],[1,0.5]];portConstraint=eastwest;rotatable=0;whiteSpace=wrap;html=1;fontColor=#333333;" vertex="1" parent="1OpWcTr0ya9Bk3IJLdpR-52">
          <mxGeometry y="60" width="140" height="50" as="geometry" />
        </mxCell>
        <mxCell id="1OpWcTr0ya9Bk3IJLdpR-55" value="&lt;div style=&quot;font-size: 13px;&quot;&gt;&lt;font style=&quot;font-size: 13px;&quot;&gt;if(keyPressed == &#39;1&#39;) {&lt;/font&gt;&lt;/div&gt;&lt;div style=&quot;font-size: 13px;&quot;&gt;&lt;font style=&quot;font-size: 13px;&quot;&gt;&amp;nbsp;&amp;nbsp; toInterFace(pageD)&lt;/font&gt;&lt;/div&gt;&lt;div style=&quot;font-size: 13px;&quot;&gt;&lt;font style=&quot;font-size: 13px;&quot;&gt;&lt;font style=&quot;font-size: 13px;&quot;&gt;}&lt;/font&gt;&lt;font style=&quot;font-size: 13px;&quot;&gt;&lt;br&gt;&lt;/font&gt;&lt;/font&gt;&lt;/div&gt;" style="text;strokeColor=#666666;fillColor=#f5f5f5;align=left;verticalAlign=middle;spacingLeft=4;spacingRight=4;overflow=hidden;points=[[0,0.5],[1,0.5]];portConstraint=eastwest;rotatable=0;whiteSpace=wrap;html=1;fontColor=#333333;" vertex="1" parent="1OpWcTr0ya9Bk3IJLdpR-52">
          <mxGeometry y="110" width="140" height="50" as="geometry" />
        </mxCell>
        <mxCell id="1OpWcTr0ya9Bk3IJLdpR-56" value="&lt;div style=&quot;font-size: 13px;&quot;&gt;&lt;font style=&quot;font-size: 13px;&quot;&gt;if(keyPressed == &#39;2&#39;) {&lt;/font&gt;&lt;/div&gt;&lt;div style=&quot;font-size: 13px;&quot;&gt;&lt;font style=&quot;font-size: 13px;&quot;&gt;&amp;nbsp;&amp;nbsp; toInterFace(pageT)&lt;/font&gt;&lt;/div&gt;&lt;div style=&quot;font-size: 13px;&quot;&gt;&lt;font style=&quot;font-size: 13px;&quot;&gt;&lt;font style=&quot;font-size: 13px;&quot;&gt;}&lt;/font&gt;&lt;font style=&quot;font-size: 13px;&quot;&gt;&lt;br&gt;&lt;/font&gt;&lt;/font&gt;&lt;/div&gt;" style="text;strokeColor=#666666;fillColor=#f5f5f5;align=left;verticalAlign=middle;spacingLeft=4;spacingRight=4;overflow=hidden;points=[[0,0.5],[1,0.5]];portConstraint=eastwest;rotatable=0;whiteSpace=wrap;html=1;fontColor=#333333;" vertex="1" parent="1OpWcTr0ya9Bk3IJLdpR-52">
          <mxGeometry y="160" width="140" height="50" as="geometry" />
        </mxCell>
        <mxCell id="1OpWcTr0ya9Bk3IJLdpR-57" value="&lt;font style=&quot;font-size: 13px;&quot;&gt;void toPage2()&lt;/font&gt;" style="swimlane;fontStyle=0;childLayout=stackLayout;horizontal=1;startSize=30;horizontalStack=0;resizeParent=1;resizeParentMax=0;resizeLast=0;collapsible=1;marginBottom=0;whiteSpace=wrap;html=1;fillColor=#fad7ac;strokeColor=#b46504;" vertex="1" parent="1OpWcTr0ya9Bk3IJLdpR-13">
          <mxGeometry x="960" y="550" width="150" height="160" as="geometry" />
        </mxCell>
        <mxCell id="1OpWcTr0ya9Bk3IJLdpR-58" value="&lt;font style=&quot;font-size: 13px;&quot;&gt;page = page2&lt;/font&gt;" style="text;strokeColor=none;fillColor=none;align=left;verticalAlign=middle;spacingLeft=4;spacingRight=4;overflow=hidden;points=[[0,0.5],[1,0.5]];portConstraint=eastwest;rotatable=0;whiteSpace=wrap;html=1;" vertex="1" parent="1OpWcTr0ya9Bk3IJLdpR-57">
          <mxGeometry y="30" width="150" height="30" as="geometry" />
        </mxCell>
        <mxCell id="1OpWcTr0ya9Bk3IJLdpR-59" value="&lt;div style=&quot;font-size: 13px;&quot;&gt;&lt;font style=&quot;font-size: 13px;&quot;&gt;if(keyPressed == &#39;0&#39;) {&lt;/font&gt;&lt;/div&gt;&lt;div style=&quot;font-size: 13px;&quot;&gt;&lt;font style=&quot;font-size: 13px;&quot;&gt;&amp;nbsp;&amp;nbsp; toInterFace(page1)&lt;/font&gt;&lt;/div&gt;&lt;div style=&quot;font-size: 13px;&quot;&gt;&lt;font style=&quot;font-size: 13px;&quot;&gt;&lt;font style=&quot;font-size: 13px;&quot;&gt;}&lt;/font&gt;&lt;font style=&quot;font-size: 13px;&quot;&gt;&lt;br&gt;&lt;/font&gt;&lt;/font&gt;&lt;/div&gt;" style="text;align=left;verticalAlign=middle;spacingLeft=4;spacingRight=4;overflow=hidden;points=[[0,0.5],[1,0.5]];portConstraint=eastwest;rotatable=0;whiteSpace=wrap;html=1;fillColor=#f5f5f5;fontColor=#333333;strokeColor=#666666;" vertex="1" parent="1OpWcTr0ya9Bk3IJLdpR-57">
          <mxGeometry y="60" width="150" height="50" as="geometry" />
        </mxCell>
        <mxCell id="1OpWcTr0ya9Bk3IJLdpR-60" value="&lt;div style=&quot;font-size: 13px;&quot;&gt;&lt;font style=&quot;font-size: 13px;&quot;&gt;if(keyPressed == &#39;1&#39;) {&lt;/font&gt;&lt;/div&gt;&lt;div style=&quot;font-size: 13px;&quot;&gt;&lt;font style=&quot;font-size: 13px;&quot;&gt;&amp;nbsp;&amp;nbsp; toInterFace(pageF)&lt;/font&gt;&lt;/div&gt;&lt;div style=&quot;font-size: 13px;&quot;&gt;&lt;font style=&quot;font-size: 13px;&quot;&gt;&lt;font style=&quot;font-size: 13px;&quot;&gt;}&lt;/font&gt;&lt;font style=&quot;font-size: 13px;&quot;&gt;&lt;br&gt;&lt;/font&gt;&lt;/font&gt;&lt;/div&gt;" style="text;strokeColor=#666666;fillColor=#f5f5f5;align=left;verticalAlign=middle;spacingLeft=4;spacingRight=4;overflow=hidden;points=[[0,0.5],[1,0.5]];portConstraint=eastwest;rotatable=0;whiteSpace=wrap;html=1;fontColor=#333333;" vertex="1" parent="1OpWcTr0ya9Bk3IJLdpR-57">
          <mxGeometry y="110" width="150" height="50" as="geometry" />
        </mxCell>
        <mxCell id="1OpWcTr0ya9Bk3IJLdpR-61" value="&lt;font style=&quot;font-size: 13px;&quot;&gt;void toDisplay()&lt;/font&gt;" style="swimlane;fontStyle=0;childLayout=stackLayout;horizontal=1;startSize=30;horizontalStack=0;resizeParent=1;resizeParentMax=0;resizeLast=0;collapsible=1;marginBottom=0;whiteSpace=wrap;html=1;fillColor=#fad7ac;strokeColor=#b46504;" vertex="1" parent="1OpWcTr0ya9Bk3IJLdpR-13">
          <mxGeometry x="940" y="1070" width="140" height="110" as="geometry" />
        </mxCell>
        <mxCell id="1OpWcTr0ya9Bk3IJLdpR-62" value="&lt;font style=&quot;font-size: 13px;&quot;&gt;page = pageD&lt;/font&gt;" style="text;strokeColor=none;fillColor=none;align=left;verticalAlign=middle;spacingLeft=4;spacingRight=4;overflow=hidden;points=[[0,0.5],[1,0.5]];portConstraint=eastwest;rotatable=0;whiteSpace=wrap;html=1;" vertex="1" parent="1OpWcTr0ya9Bk3IJLdpR-61">
          <mxGeometry y="30" width="140" height="30" as="geometry" />
        </mxCell>
        <mxCell id="1OpWcTr0ya9Bk3IJLdpR-63" value="&lt;div style=&quot;font-size: 13px;&quot;&gt;&lt;font style=&quot;font-size: 13px;&quot;&gt;if(keyPressed == &#39;*&#39;) {&lt;/font&gt;&lt;/div&gt;&lt;div style=&quot;font-size: 13px;&quot;&gt;&lt;font style=&quot;font-size: 13px;&quot;&gt;&amp;nbsp;&amp;nbsp; toInterFace(page1)&lt;/font&gt;&lt;/div&gt;&lt;div style=&quot;font-size: 13px;&quot;&gt;&lt;font style=&quot;font-size: 13px;&quot;&gt;&lt;font style=&quot;font-size: 13px;&quot;&gt;}&lt;/font&gt;&lt;font style=&quot;font-size: 13px;&quot;&gt;&lt;br&gt;&lt;/font&gt;&lt;/font&gt;&lt;/div&gt;" style="text;strokeColor=#666666;fillColor=#f5f5f5;align=left;verticalAlign=middle;spacingLeft=4;spacingRight=4;overflow=hidden;points=[[0,0.5],[1,0.5]];portConstraint=eastwest;rotatable=0;whiteSpace=wrap;html=1;fontColor=#333333;" vertex="1" parent="1OpWcTr0ya9Bk3IJLdpR-61">
          <mxGeometry y="60" width="140" height="50" as="geometry" />
        </mxCell>
        <mxCell id="1OpWcTr0ya9Bk3IJLdpR-64" value="&lt;font style=&quot;font-size: 13px;&quot;&gt;void toTimer()&lt;/font&gt;" style="swimlane;fontStyle=0;childLayout=stackLayout;horizontal=1;startSize=30;horizontalStack=0;resizeParent=1;resizeParentMax=0;resizeLast=0;collapsible=1;marginBottom=0;whiteSpace=wrap;html=1;fillColor=#fad7ac;strokeColor=#b46504;" vertex="1" parent="1OpWcTr0ya9Bk3IJLdpR-13">
          <mxGeometry x="940" y="790" width="220" height="210" as="geometry" />
        </mxCell>
        <mxCell id="1OpWcTr0ya9Bk3IJLdpR-65" value="&lt;font style=&quot;font-size: 13px;&quot;&gt;page = pageT&lt;/font&gt;" style="text;strokeColor=none;fillColor=none;align=left;verticalAlign=middle;spacingLeft=4;spacingRight=4;overflow=hidden;points=[[0,0.5],[1,0.5]];portConstraint=eastwest;rotatable=0;whiteSpace=wrap;html=1;" vertex="1" parent="1OpWcTr0ya9Bk3IJLdpR-64">
          <mxGeometry y="30" width="220" height="30" as="geometry" />
        </mxCell>
        <mxCell id="1OpWcTr0ya9Bk3IJLdpR-66" value="&lt;div style=&quot;font-size: 13px;&quot;&gt;&lt;font style=&quot;font-size: 13px;&quot;&gt;if(keyPressed == &#39; * &#39;) {&lt;/font&gt;&lt;/div&gt;&lt;div style=&quot;font-size: 13px;&quot;&gt;&lt;font style=&quot;font-size: 13px;&quot;&gt;&amp;nbsp;&amp;nbsp; toInterFace(page1)&lt;/font&gt;&lt;/div&gt;&lt;div style=&quot;font-size: 13px;&quot;&gt;&lt;font style=&quot;font-size: 13px;&quot;&gt;&lt;font style=&quot;font-size: 13px;&quot;&gt;}&lt;/font&gt;&lt;font style=&quot;font-size: 13px;&quot;&gt;&lt;br&gt;&lt;/font&gt;&lt;/font&gt;&lt;/div&gt;" style="text;strokeColor=#666666;fillColor=#f5f5f5;align=left;verticalAlign=middle;spacingLeft=4;spacingRight=4;overflow=hidden;points=[[0,0.5],[1,0.5]];portConstraint=eastwest;rotatable=0;whiteSpace=wrap;html=1;fontColor=#333333;" vertex="1" parent="1OpWcTr0ya9Bk3IJLdpR-64">
          <mxGeometry y="60" width="220" height="50" as="geometry" />
        </mxCell>
        <mxCell id="1OpWcTr0ya9Bk3IJLdpR-67" value="&lt;div style=&quot;font-size: 13px;&quot;&gt;&lt;font style=&quot;font-size: 13px;&quot;&gt;if(keyPressed == &#39;0&#39; &amp;amp;&amp;amp; !isTyping) {&lt;/font&gt;&lt;/div&gt;&lt;div style=&quot;font-size: 13px;&quot;&gt;&lt;font style=&quot;font-size: 13px;&quot;&gt;&amp;nbsp;&amp;nbsp; isTyping = true&lt;br&gt;&lt;/font&gt;&lt;/div&gt;&lt;div style=&quot;font-size: 13px;&quot;&gt;&lt;font style=&quot;font-size: 13px;&quot;&gt;&lt;font style=&quot;font-size: 13px;&quot;&gt;}&lt;/font&gt;&lt;font style=&quot;font-size: 13px;&quot;&gt;&lt;br&gt;&lt;/font&gt;&lt;/font&gt;&lt;/div&gt;" style="text;strokeColor=#666666;fillColor=#f5f5f5;align=left;verticalAlign=middle;spacingLeft=4;spacingRight=4;overflow=hidden;points=[[0,0.5],[1,0.5]];portConstraint=eastwest;rotatable=0;whiteSpace=wrap;html=1;fontColor=#333333;" vertex="1" parent="1OpWcTr0ya9Bk3IJLdpR-64">
          <mxGeometry y="110" width="220" height="50" as="geometry" />
        </mxCell>
        <mxCell id="1OpWcTr0ya9Bk3IJLdpR-68" value="&lt;div style=&quot;font-size: 13px;&quot;&gt;&lt;font style=&quot;font-size: 13px;&quot;&gt;if(isTyping) {&lt;/font&gt;&lt;/div&gt;&lt;div style=&quot;font-size: 13px;&quot;&gt;&lt;font style=&quot;font-size: 13px;&quot;&gt;&amp;nbsp;&amp;nbsp; toTypeValue()&lt;br&gt;&lt;/font&gt;&lt;/div&gt;&lt;div style=&quot;font-size: 13px;&quot;&gt;&lt;font style=&quot;font-size: 13px;&quot;&gt;&lt;font style=&quot;font-size: 13px;&quot;&gt;}&lt;/font&gt;&lt;font style=&quot;font-size: 13px;&quot;&gt;&lt;br&gt;&lt;/font&gt;&lt;/font&gt;&lt;/div&gt;" style="text;strokeColor=#666666;fillColor=#f5f5f5;align=left;verticalAlign=middle;spacingLeft=4;spacingRight=4;overflow=hidden;points=[[0,0.5],[1,0.5]];portConstraint=eastwest;rotatable=0;whiteSpace=wrap;html=1;fontColor=#333333;" vertex="1" parent="1OpWcTr0ya9Bk3IJLdpR-64">
          <mxGeometry y="160" width="220" height="50" as="geometry" />
        </mxCell>
        <mxCell id="1OpWcTr0ya9Bk3IJLdpR-69" style="edgeStyle=orthogonalEdgeStyle;rounded=0;orthogonalLoop=1;jettySize=auto;html=1;entryX=0;entryY=0.5;entryDx=0;entryDy=0;" edge="1" parent="1OpWcTr0ya9Bk3IJLdpR-64" source="1OpWcTr0ya9Bk3IJLdpR-67" target="1OpWcTr0ya9Bk3IJLdpR-68">
          <mxGeometry relative="1" as="geometry" />
        </mxCell>
        <mxCell id="1OpWcTr0ya9Bk3IJLdpR-70" style="edgeStyle=orthogonalEdgeStyle;rounded=0;orthogonalLoop=1;jettySize=auto;html=1;startArrow=oval;startFill=1;entryX=0.5;entryY=0;entryDx=0;entryDy=0;" edge="1" parent="1OpWcTr0ya9Bk3IJLdpR-13" source="1OpWcTr0ya9Bk3IJLdpR-112" target="1OpWcTr0ya9Bk3IJLdpR-52">
          <mxGeometry relative="1" as="geometry">
            <Array as="points">
              <mxPoint x="850" y="410" />
              <mxPoint x="850" y="230" />
              <mxPoint x="1030" y="230" />
            </Array>
          </mxGeometry>
        </mxCell>
        <mxCell id="1OpWcTr0ya9Bk3IJLdpR-71" value="&lt;font style=&quot;font-size: 13px;&quot;&gt;void toForce()&lt;/font&gt;" style="swimlane;fontStyle=0;childLayout=stackLayout;horizontal=1;startSize=30;horizontalStack=0;resizeParent=1;resizeParentMax=0;resizeLast=0;collapsible=1;marginBottom=0;whiteSpace=wrap;html=1;fillColor=#fad7ac;strokeColor=#b46504;" vertex="1" parent="1OpWcTr0ya9Bk3IJLdpR-13">
          <mxGeometry x="940" y="1290" width="170" height="290" as="geometry" />
        </mxCell>
        <mxCell id="1OpWcTr0ya9Bk3IJLdpR-72" value="&lt;font style=&quot;font-size: 13px;&quot;&gt;page = pageF&lt;/font&gt;" style="text;strokeColor=none;fillColor=none;align=left;verticalAlign=middle;spacingLeft=4;spacingRight=4;overflow=hidden;points=[[0,0.5],[1,0.5]];portConstraint=eastwest;rotatable=0;whiteSpace=wrap;html=1;" vertex="1" parent="1OpWcTr0ya9Bk3IJLdpR-71">
          <mxGeometry y="30" width="170" height="30" as="geometry" />
        </mxCell>
        <mxCell id="1OpWcTr0ya9Bk3IJLdpR-73" value="&lt;div style=&quot;font-size: 13px;&quot;&gt;&lt;font style=&quot;font-size: 13px;&quot;&gt;if(keypad.getState == 0) {&lt;/font&gt;&lt;/div&gt;&lt;div style=&quot;font-size: 13px;&quot;&gt;&lt;font style=&quot;font-size: 13px;&quot;&gt;&amp;nbsp;&amp;nbsp; direction = 0&lt;/font&gt;&lt;/div&gt;&lt;div style=&quot;font-size: 13px;&quot;&gt;&lt;font style=&quot;font-size: 13px;&quot;&gt;&amp;nbsp;&amp;nbsp; isForce = false&lt;br&gt;&lt;/font&gt;&lt;/div&gt;&lt;div style=&quot;font-size: 13px;&quot;&gt;&lt;font style=&quot;font-size: 13px;&quot;&gt;&lt;font style=&quot;font-size: 13px;&quot;&gt;}&lt;/font&gt;&lt;font style=&quot;font-size: 13px;&quot;&gt;&lt;br&gt;&lt;/font&gt;&lt;/font&gt;&lt;/div&gt;" style="text;strokeColor=#666666;fillColor=#f5f5f5;align=left;verticalAlign=middle;spacingLeft=4;spacingRight=4;overflow=hidden;points=[[0,0.5],[1,0.5]];portConstraint=eastwest;rotatable=0;whiteSpace=wrap;html=1;fontColor=#333333;" vertex="1" parent="1OpWcTr0ya9Bk3IJLdpR-71">
          <mxGeometry y="60" width="170" height="90" as="geometry" />
        </mxCell>
        <mxCell id="1OpWcTr0ya9Bk3IJLdpR-74" value="&lt;div style=&quot;font-size: 13px;&quot;&gt;&lt;font style=&quot;font-size: 13px;&quot;&gt;if(keyPressed == &#39;4&#39;) {&lt;/font&gt;&lt;/div&gt;&lt;div style=&quot;font-size: 13px;&quot;&gt;&lt;font style=&quot;font-size: 13px;&quot;&gt;&amp;nbsp;&amp;nbsp; direction = 1&lt;/font&gt;&lt;/div&gt;&lt;div style=&quot;font-size: 13px;&quot;&gt;&lt;font style=&quot;font-size: 13px;&quot;&gt;&amp;nbsp;&amp;nbsp; isForce = true&lt;br&gt;&lt;/font&gt;&lt;/div&gt;&lt;div style=&quot;font-size: 13px;&quot;&gt;&lt;font style=&quot;font-size: 13px;&quot;&gt;&lt;font style=&quot;font-size: 13px;&quot;&gt;}&lt;/font&gt;&lt;font style=&quot;font-size: 13px;&quot;&gt;&lt;br&gt;&lt;/font&gt;&lt;/font&gt;&lt;/div&gt;" style="text;strokeColor=#666666;fillColor=#f5f5f5;align=left;verticalAlign=middle;spacingLeft=4;spacingRight=4;overflow=hidden;points=[[0,0.5],[1,0.5]];portConstraint=eastwest;rotatable=0;whiteSpace=wrap;html=1;fontColor=#333333;" vertex="1" parent="1OpWcTr0ya9Bk3IJLdpR-71">
          <mxGeometry y="150" width="170" height="70" as="geometry" />
        </mxCell>
        <mxCell id="1OpWcTr0ya9Bk3IJLdpR-75" value="&lt;div style=&quot;font-size: 13px;&quot;&gt;&lt;font style=&quot;font-size: 13px;&quot;&gt;if(keyPressed == &#39;6&#39;) {&lt;/font&gt;&lt;/div&gt;&lt;div style=&quot;font-size: 13px;&quot;&gt;&lt;font style=&quot;font-size: 13px;&quot;&gt;&amp;nbsp;&amp;nbsp; direction = 2&lt;br&gt;&lt;/font&gt;&lt;/div&gt;&lt;div style=&quot;font-size: 13px;&quot;&gt;&lt;font style=&quot;font-size: 13px;&quot;&gt;&amp;nbsp;&amp;nbsp; isForce = true&lt;br&gt;&lt;/font&gt;&lt;/div&gt;&lt;div style=&quot;font-size: 13px;&quot;&gt;&lt;font style=&quot;font-size: 13px;&quot;&gt;&lt;font style=&quot;font-size: 13px;&quot;&gt;}&lt;/font&gt;&lt;font style=&quot;font-size: 13px;&quot;&gt;&lt;br&gt;&lt;/font&gt;&lt;/font&gt;&lt;/div&gt;" style="text;strokeColor=#666666;fillColor=#f5f5f5;align=left;verticalAlign=middle;spacingLeft=4;spacingRight=4;overflow=hidden;points=[[0,0.5],[1,0.5]];portConstraint=eastwest;rotatable=0;whiteSpace=wrap;html=1;fontColor=#333333;" vertex="1" parent="1OpWcTr0ya9Bk3IJLdpR-71">
          <mxGeometry y="220" width="170" height="70" as="geometry" />
        </mxCell>
        <mxCell id="1OpWcTr0ya9Bk3IJLdpR-76" style="edgeStyle=orthogonalEdgeStyle;rounded=0;orthogonalLoop=1;jettySize=auto;html=1;startArrow=oval;startFill=1;entryX=0.5;entryY=0;entryDx=0;entryDy=0;" edge="1" parent="1OpWcTr0ya9Bk3IJLdpR-13" source="1OpWcTr0ya9Bk3IJLdpR-114" target="1OpWcTr0ya9Bk3IJLdpR-57">
          <mxGeometry relative="1" as="geometry">
            <Array as="points">
              <mxPoint x="850" y="610" />
              <mxPoint x="850" y="520" />
              <mxPoint x="1035" y="520" />
            </Array>
          </mxGeometry>
        </mxCell>
        <mxCell id="1OpWcTr0ya9Bk3IJLdpR-77" style="edgeStyle=orthogonalEdgeStyle;rounded=0;orthogonalLoop=1;jettySize=auto;html=1;startArrow=oval;startFill=1;entryX=0.5;entryY=0;entryDx=0;entryDy=0;" edge="1" parent="1OpWcTr0ya9Bk3IJLdpR-13" source="1OpWcTr0ya9Bk3IJLdpR-116" target="1OpWcTr0ya9Bk3IJLdpR-64">
          <mxGeometry relative="1" as="geometry">
            <Array as="points">
              <mxPoint x="850" y="810" />
              <mxPoint x="850" y="760" />
              <mxPoint x="1050" y="760" />
            </Array>
          </mxGeometry>
        </mxCell>
        <mxCell id="1OpWcTr0ya9Bk3IJLdpR-78" style="edgeStyle=orthogonalEdgeStyle;rounded=0;orthogonalLoop=1;jettySize=auto;html=1;startArrow=oval;startFill=1;entryX=0.5;entryY=0;entryDx=0;entryDy=0;" edge="1" parent="1OpWcTr0ya9Bk3IJLdpR-13" source="1OpWcTr0ya9Bk3IJLdpR-118" target="1OpWcTr0ya9Bk3IJLdpR-61">
          <mxGeometry relative="1" as="geometry">
            <Array as="points">
              <mxPoint x="1010" y="1030" />
            </Array>
          </mxGeometry>
        </mxCell>
        <mxCell id="1OpWcTr0ya9Bk3IJLdpR-79" style="edgeStyle=orthogonalEdgeStyle;rounded=0;orthogonalLoop=1;jettySize=auto;html=1;entryX=0.5;entryY=0;entryDx=0;entryDy=0;startArrow=oval;startFill=1;" edge="1" parent="1OpWcTr0ya9Bk3IJLdpR-13" source="1OpWcTr0ya9Bk3IJLdpR-120" target="1OpWcTr0ya9Bk3IJLdpR-71">
          <mxGeometry relative="1" as="geometry" />
        </mxCell>
        <mxCell id="1OpWcTr0ya9Bk3IJLdpR-80" style="edgeStyle=orthogonalEdgeStyle;rounded=0;orthogonalLoop=1;jettySize=auto;html=1;entryX=0.5;entryY=0;entryDx=0;entryDy=0;dashed=1;dashPattern=1 4;strokeWidth=1;startArrow=ERmany;startFill=0;" edge="1" parent="1OpWcTr0ya9Bk3IJLdpR-13" source="1OpWcTr0ya9Bk3IJLdpR-54" target="1OpWcTr0ya9Bk3IJLdpR-42">
          <mxGeometry relative="1" as="geometry">
            <Array as="points">
              <mxPoint x="880" y="345" />
              <mxPoint x="880" y="190" />
              <mxPoint x="465" y="190" />
            </Array>
          </mxGeometry>
        </mxCell>
        <mxCell id="1OpWcTr0ya9Bk3IJLdpR-81" style="edgeStyle=orthogonalEdgeStyle;rounded=0;orthogonalLoop=1;jettySize=auto;html=1;entryX=0.5;entryY=0;entryDx=0;entryDy=0;dashed=1;dashPattern=1 4;strokeWidth=1;startArrow=ERmany;startFill=0;" edge="1" parent="1OpWcTr0ya9Bk3IJLdpR-13" source="1OpWcTr0ya9Bk3IJLdpR-55" target="1OpWcTr0ya9Bk3IJLdpR-42">
          <mxGeometry relative="1" as="geometry">
            <Array as="points">
              <mxPoint x="880" y="395" />
              <mxPoint x="880" y="190" />
              <mxPoint x="465" y="190" />
            </Array>
          </mxGeometry>
        </mxCell>
        <mxCell id="1OpWcTr0ya9Bk3IJLdpR-82" style="edgeStyle=orthogonalEdgeStyle;rounded=0;orthogonalLoop=1;jettySize=auto;html=1;entryX=0.5;entryY=0;entryDx=0;entryDy=0;dashed=1;dashPattern=1 4;strokeWidth=1;startArrow=ERmany;startFill=0;" edge="1" parent="1OpWcTr0ya9Bk3IJLdpR-13" source="1OpWcTr0ya9Bk3IJLdpR-56" target="1OpWcTr0ya9Bk3IJLdpR-42">
          <mxGeometry relative="1" as="geometry">
            <Array as="points">
              <mxPoint x="880" y="445" />
              <mxPoint x="880" y="190" />
              <mxPoint x="465" y="190" />
            </Array>
          </mxGeometry>
        </mxCell>
        <mxCell id="1OpWcTr0ya9Bk3IJLdpR-83" style="edgeStyle=orthogonalEdgeStyle;rounded=0;orthogonalLoop=1;jettySize=auto;html=1;entryX=0.5;entryY=0;entryDx=0;entryDy=0;dashed=1;dashPattern=1 4;strokeWidth=1;startArrow=ERmany;startFill=0;" edge="1" parent="1OpWcTr0ya9Bk3IJLdpR-13" source="1OpWcTr0ya9Bk3IJLdpR-59" target="1OpWcTr0ya9Bk3IJLdpR-42">
          <mxGeometry relative="1" as="geometry">
            <Array as="points">
              <mxPoint x="880" y="635" />
              <mxPoint x="880" y="190" />
              <mxPoint x="465" y="190" />
            </Array>
          </mxGeometry>
        </mxCell>
        <mxCell id="1OpWcTr0ya9Bk3IJLdpR-84" style="edgeStyle=orthogonalEdgeStyle;rounded=0;orthogonalLoop=1;jettySize=auto;html=1;entryX=0.5;entryY=0;entryDx=0;entryDy=0;dashed=1;dashPattern=1 4;strokeWidth=1;startArrow=ERmany;startFill=0;" edge="1" parent="1OpWcTr0ya9Bk3IJLdpR-13" source="1OpWcTr0ya9Bk3IJLdpR-60" target="1OpWcTr0ya9Bk3IJLdpR-42">
          <mxGeometry relative="1" as="geometry">
            <Array as="points">
              <mxPoint x="880" y="690" />
              <mxPoint x="880" y="190" />
              <mxPoint x="465" y="190" />
            </Array>
          </mxGeometry>
        </mxCell>
        <mxCell id="1OpWcTr0ya9Bk3IJLdpR-85" style="edgeStyle=orthogonalEdgeStyle;rounded=0;orthogonalLoop=1;jettySize=auto;html=1;entryX=0.5;entryY=0;entryDx=0;entryDy=0;dashed=1;dashPattern=1 4;strokeWidth=1;startArrow=ERmany;startFill=0;" edge="1" parent="1OpWcTr0ya9Bk3IJLdpR-13" source="1OpWcTr0ya9Bk3IJLdpR-66" target="1OpWcTr0ya9Bk3IJLdpR-42">
          <mxGeometry relative="1" as="geometry">
            <Array as="points">
              <mxPoint x="880" y="855" />
              <mxPoint x="880" y="190" />
              <mxPoint x="465" y="190" />
            </Array>
          </mxGeometry>
        </mxCell>
        <mxCell id="1OpWcTr0ya9Bk3IJLdpR-86" style="edgeStyle=orthogonalEdgeStyle;rounded=0;orthogonalLoop=1;jettySize=auto;html=1;entryX=0.5;entryY=0;entryDx=0;entryDy=0;strokeWidth=1;startArrow=ERmany;startFill=0;dashed=1;dashPattern=1 4;" edge="1" parent="1OpWcTr0ya9Bk3IJLdpR-13" source="1OpWcTr0ya9Bk3IJLdpR-63" target="1OpWcTr0ya9Bk3IJLdpR-42">
          <mxGeometry relative="1" as="geometry">
            <Array as="points">
              <mxPoint x="880" y="1155" />
              <mxPoint x="880" y="190" />
              <mxPoint x="465" y="190" />
            </Array>
          </mxGeometry>
        </mxCell>
        <mxCell id="1OpWcTr0ya9Bk3IJLdpR-87" value="&lt;font style=&quot;font-size: 16px;&quot;&gt;switch(newValueCount)&lt;/font&gt;" style="swimlane;fontStyle=0;childLayout=stackLayout;horizontal=1;startSize=50;horizontalStack=0;resizeParent=1;resizeParentMax=0;resizeLast=0;collapsible=1;marginBottom=0;whiteSpace=wrap;html=1;fillColor=#dae8fc;strokeColor=#6c8ebf;" vertex="1" parent="1OpWcTr0ya9Bk3IJLdpR-13">
          <mxGeometry x="2020" y="580" width="320" height="450" as="geometry" />
        </mxCell>
        <mxCell id="1OpWcTr0ya9Bk3IJLdpR-88" style="edgeStyle=orthogonalEdgeStyle;rounded=0;orthogonalLoop=1;jettySize=auto;html=1;entryX=0;entryY=0.5;entryDx=0;entryDy=0;" edge="1" parent="1OpWcTr0ya9Bk3IJLdpR-87" source="1OpWcTr0ya9Bk3IJLdpR-89" target="1OpWcTr0ya9Bk3IJLdpR-91">
          <mxGeometry relative="1" as="geometry">
            <Array as="points">
              <mxPoint x="-40" y="95" />
              <mxPoint x="-40" y="185" />
            </Array>
          </mxGeometry>
        </mxCell>
        <mxCell id="1OpWcTr0ya9Bk3IJLdpR-89" value="&lt;div style=&quot;font-size: 17px;&quot;&gt;&lt;font style=&quot;font-size: 17px;&quot;&gt;case 0:&lt;/font&gt;&lt;/div&gt;&lt;div style=&quot;font-size: 17px;&quot;&gt;&lt;font style=&quot;font-size: 17px;&quot;&gt;&lt;font style=&quot;font-size: 17px;&quot;&gt;&amp;nbsp;&amp;nbsp; a = keyPressed&lt;/font&gt;&lt;/font&gt;&lt;/div&gt;&lt;div style=&quot;font-size: 17px;&quot;&gt;&lt;font style=&quot;font-size: 17px;&quot;&gt;&lt;font style=&quot;font-size: 17px;&quot;&gt;&amp;nbsp;&amp;nbsp; newValueCount++ &lt;br&gt;&lt;/font&gt;&lt;/font&gt;&lt;/div&gt;" style="text;align=left;verticalAlign=middle;spacingLeft=4;spacingRight=4;overflow=hidden;points=[[0,0.5],[1,0.5]];portConstraint=eastwest;rotatable=0;whiteSpace=wrap;html=1;fillColor=#f5f5f5;fontColor=#333333;strokeColor=#666666;" vertex="1" parent="1OpWcTr0ya9Bk3IJLdpR-87">
          <mxGeometry y="50" width="320" height="90" as="geometry" />
        </mxCell>
        <mxCell id="1OpWcTr0ya9Bk3IJLdpR-90" style="edgeStyle=orthogonalEdgeStyle;rounded=0;orthogonalLoop=1;jettySize=auto;html=1;entryX=0;entryY=0.5;entryDx=0;entryDy=0;" edge="1" parent="1OpWcTr0ya9Bk3IJLdpR-87" source="1OpWcTr0ya9Bk3IJLdpR-91" target="1OpWcTr0ya9Bk3IJLdpR-93">
          <mxGeometry relative="1" as="geometry">
            <Array as="points">
              <mxPoint x="-40" y="200" />
              <mxPoint x="-40" y="275" />
            </Array>
          </mxGeometry>
        </mxCell>
        <mxCell id="1OpWcTr0ya9Bk3IJLdpR-91" value="&lt;div style=&quot;font-size: 17px;&quot;&gt;&lt;font style=&quot;font-size: 17px;&quot;&gt;case 1:&lt;/font&gt;&lt;/div&gt;&lt;div style=&quot;font-size: 17px;&quot;&gt;&lt;font style=&quot;font-size: 17px;&quot;&gt;&lt;font style=&quot;font-size: 17px;&quot;&gt;&amp;nbsp;&amp;nbsp; b = keyPressed&lt;/font&gt;&lt;/font&gt;&lt;/div&gt;&lt;div style=&quot;font-size: 17px;&quot;&gt;&lt;font style=&quot;font-size: 17px;&quot;&gt;&lt;font style=&quot;font-size: 17px;&quot;&gt;&amp;nbsp;&amp;nbsp; newValueCount++ &lt;br&gt;&lt;/font&gt;&lt;/font&gt;&lt;/div&gt;" style="text;strokeColor=#666666;fillColor=#f5f5f5;align=left;verticalAlign=middle;spacingLeft=4;spacingRight=4;overflow=hidden;points=[[0,0.5],[1,0.5]];portConstraint=eastwest;rotatable=0;whiteSpace=wrap;html=1;fontColor=#333333;" vertex="1" parent="1OpWcTr0ya9Bk3IJLdpR-87">
          <mxGeometry y="140" width="320" height="90" as="geometry" />
        </mxCell>
        <mxCell id="1OpWcTr0ya9Bk3IJLdpR-92" style="edgeStyle=orthogonalEdgeStyle;rounded=0;orthogonalLoop=1;jettySize=auto;html=1;entryX=0;entryY=0.5;entryDx=0;entryDy=0;" edge="1" parent="1OpWcTr0ya9Bk3IJLdpR-87" source="1OpWcTr0ya9Bk3IJLdpR-93" target="1OpWcTr0ya9Bk3IJLdpR-94">
          <mxGeometry relative="1" as="geometry">
            <Array as="points">
              <mxPoint x="-40" y="290" />
              <mxPoint x="-40" y="385" />
            </Array>
          </mxGeometry>
        </mxCell>
        <mxCell id="1OpWcTr0ya9Bk3IJLdpR-93" value="&lt;div style=&quot;font-size: 17px;&quot;&gt;&lt;font style=&quot;font-size: 17px;&quot;&gt;case 2:&lt;/font&gt;&lt;/div&gt;&lt;div style=&quot;font-size: 17px;&quot;&gt;&lt;font style=&quot;font-size: 17px;&quot;&gt;&lt;font style=&quot;font-size: 17px;&quot;&gt;&amp;nbsp;&amp;nbsp; c = keyPressed&lt;/font&gt;&lt;/font&gt;&lt;/div&gt;&lt;div style=&quot;font-size: 17px;&quot;&gt;&lt;font style=&quot;font-size: 17px;&quot;&gt;&lt;font style=&quot;font-size: 17px;&quot;&gt;&amp;nbsp;&amp;nbsp; newValueCount++ &lt;br&gt;&lt;/font&gt;&lt;/font&gt;&lt;/div&gt;" style="text;strokeColor=#666666;fillColor=#f5f5f5;align=left;verticalAlign=middle;spacingLeft=4;spacingRight=4;overflow=hidden;points=[[0,0.5],[1,0.5]];portConstraint=eastwest;rotatable=0;whiteSpace=wrap;html=1;fontColor=#333333;" vertex="1" parent="1OpWcTr0ya9Bk3IJLdpR-87">
          <mxGeometry y="230" width="320" height="90" as="geometry" />
        </mxCell>
        <mxCell id="1OpWcTr0ya9Bk3IJLdpR-94" value="&lt;div style=&quot;font-size: 17px;&quot;&gt;&lt;font style=&quot;font-size: 17px;&quot;&gt;case 3:&lt;/font&gt;&lt;/div&gt;&lt;div style=&quot;font-size: 17px;&quot;&gt;&lt;b&gt;&lt;font style=&quot;font-size: 17px;&quot;&gt;&lt;font style=&quot;font-size: 17px;&quot;&gt;&lt;u&gt;&amp;nbsp;&amp;nbsp; timeLimit = a*100 + b*10 + c&lt;/u&gt;&lt;/font&gt;&lt;/font&gt;&lt;/b&gt;&lt;/div&gt;&lt;div style=&quot;font-size: 17px;&quot;&gt;&lt;font style=&quot;font-size: 17px;&quot;&gt;&lt;font style=&quot;font-size: 17px;&quot;&gt;&amp;nbsp;&amp;nbsp; delay(200)&lt;/font&gt;&lt;/font&gt;&lt;/div&gt;&lt;div style=&quot;font-size: 17px;&quot;&gt;&lt;b&gt;&lt;font style=&quot;font-size: 17px;&quot;&gt;&lt;font style=&quot;font-size: 17px;&quot;&gt;&lt;u&gt;&amp;nbsp;&amp;nbsp; isTyping = false&lt;/u&gt;&lt;/font&gt;&lt;/font&gt;&lt;/b&gt;&lt;/div&gt;&lt;div style=&quot;font-size: 17px;&quot;&gt;&lt;font style=&quot;font-size: 17px;&quot;&gt;&lt;font style=&quot;font-size: 17px;&quot;&gt;&amp;nbsp;&amp;nbsp; a,b,c&amp;nbsp; =&amp;nbsp; 0&lt;/font&gt;&lt;/font&gt;&lt;/div&gt;&lt;div style=&quot;font-size: 17px;&quot;&gt;&lt;font style=&quot;font-size: 17px;&quot;&gt;&lt;font style=&quot;font-size: 17px;&quot;&gt;&amp;nbsp;&amp;nbsp; newValueCount&amp;nbsp; =&amp;nbsp; 0&lt;br&gt;&lt;/font&gt;&lt;/font&gt;&lt;/div&gt;" style="text;strokeColor=#666666;fillColor=#f5f5f5;align=left;verticalAlign=middle;spacingLeft=4;spacingRight=4;overflow=hidden;points=[[0,0.5],[1,0.5]];portConstraint=eastwest;rotatable=0;whiteSpace=wrap;html=1;fontColor=#333333;" vertex="1" parent="1OpWcTr0ya9Bk3IJLdpR-87">
          <mxGeometry y="320" width="320" height="130" as="geometry" />
        </mxCell>
        <mxCell id="1OpWcTr0ya9Bk3IJLdpR-95" style="edgeStyle=orthogonalEdgeStyle;rounded=0;orthogonalLoop=1;jettySize=auto;html=1;startArrow=oval;startFill=0;entryX=1.002;entryY=0.823;entryDx=0;entryDy=0;entryPerimeter=0;" edge="1" parent="1OpWcTr0ya9Bk3IJLdpR-87" target="1OpWcTr0ya9Bk3IJLdpR-68">
          <mxGeometry relative="1" as="geometry">
            <mxPoint x="160" y="397" as="sourcePoint" />
            <mxPoint x="-680" y="410" as="targetPoint" />
            <Array as="points">
              <mxPoint x="230" y="397" />
              <mxPoint x="230" y="510" />
              <mxPoint x="-630" y="510" />
              <mxPoint x="-630" y="411" />
              <mxPoint x="-740" y="411" />
            </Array>
          </mxGeometry>
        </mxCell>
        <mxCell id="1OpWcTr0ya9Bk3IJLdpR-96" value="&lt;font style=&quot;font-size: 13px;&quot;&gt;void toTypeValue()&lt;/font&gt;" style="swimlane;fontStyle=0;childLayout=stackLayout;horizontal=1;startSize=30;horizontalStack=0;resizeParent=1;resizeParentMax=0;resizeLast=0;collapsible=1;marginBottom=0;whiteSpace=wrap;html=1;fillColor=#fad7ac;strokeColor=#b46504;" vertex="1" parent="1OpWcTr0ya9Bk3IJLdpR-13">
          <mxGeometry x="1470" y="790" width="220" height="210" as="geometry" />
        </mxCell>
        <mxCell id="1OpWcTr0ya9Bk3IJLdpR-97" value="&lt;font style=&quot;font-size: 13px;&quot;&gt;page = pageT&lt;/font&gt;" style="text;strokeColor=none;fillColor=none;align=left;verticalAlign=middle;spacingLeft=4;spacingRight=4;overflow=hidden;points=[[0,0.5],[1,0.5]];portConstraint=eastwest;rotatable=0;whiteSpace=wrap;html=1;" vertex="1" parent="1OpWcTr0ya9Bk3IJLdpR-96">
          <mxGeometry y="30" width="220" height="30" as="geometry" />
        </mxCell>
        <mxCell id="1OpWcTr0ya9Bk3IJLdpR-98" value="&lt;div style=&quot;font-size: 13px;&quot;&gt;&lt;font style=&quot;font-size: 13px;&quot;&gt;if(keyPressed == &#39; * &#39;) {&lt;/font&gt;&lt;/div&gt;&lt;div style=&quot;font-size: 13px;&quot;&gt;&lt;font style=&quot;font-size: 13px;&quot;&gt;&amp;nbsp;&amp;nbsp; isTyping = false&lt;/font&gt;&lt;/div&gt;&lt;div style=&quot;font-size: 13px;&quot;&gt;&lt;font style=&quot;font-size: 13px;&quot;&gt;&amp;nbsp;&amp;nbsp; changing = true&lt;br&gt;&lt;/font&gt;&lt;/div&gt;&lt;div style=&quot;font-size: 13px;&quot;&gt;&lt;font style=&quot;font-size: 13px;&quot;&gt;&amp;nbsp;&amp;nbsp; newValueCount = 0&lt;/font&gt;&lt;/div&gt;&lt;div style=&quot;font-size: 13px;&quot;&gt;&lt;font style=&quot;font-size: 13px;&quot;&gt;&amp;nbsp;&amp;nbsp; a,b,c = 0&lt;br&gt;&lt;/font&gt;&lt;/div&gt;&lt;div style=&quot;font-size: 13px;&quot;&gt;&lt;font style=&quot;font-size: 13px;&quot;&gt;&lt;font style=&quot;font-size: 13px;&quot;&gt;}&lt;/font&gt;&lt;font style=&quot;font-size: 13px;&quot;&gt;&lt;br&gt;&lt;/font&gt;&lt;/font&gt;&lt;/div&gt;" style="text;strokeColor=#666666;fillColor=#f5f5f5;align=left;verticalAlign=middle;spacingLeft=4;spacingRight=4;overflow=hidden;points=[[0,0.5],[1,0.5]];portConstraint=eastwest;rotatable=0;whiteSpace=wrap;html=1;fontColor=#333333;" vertex="1" parent="1OpWcTr0ya9Bk3IJLdpR-96">
          <mxGeometry y="60" width="220" height="100" as="geometry" />
        </mxCell>
        <mxCell id="1OpWcTr0ya9Bk3IJLdpR-99" style="edgeStyle=orthogonalEdgeStyle;rounded=0;orthogonalLoop=1;jettySize=auto;html=1;startArrow=oval;startFill=1;" edge="1" parent="1OpWcTr0ya9Bk3IJLdpR-96" source="1OpWcTr0ya9Bk3IJLdpR-98">
          <mxGeometry relative="1" as="geometry">
            <mxPoint x="-80" y="200" as="targetPoint" />
            <Array as="points">
              <mxPoint x="-30" y="105" />
              <mxPoint x="-30" y="200" />
            </Array>
          </mxGeometry>
        </mxCell>
        <mxCell id="1OpWcTr0ya9Bk3IJLdpR-100" value="&lt;div style=&quot;font-size: 13px;&quot;&gt;&lt;font style=&quot;font-size: 13px;&quot;&gt;if(isDigit(keyPressed)) {&lt;/font&gt;&lt;/div&gt;&lt;div style=&quot;font-size: 13px;&quot;&gt;&lt;font style=&quot;font-size: 13px;&quot;&gt;&lt;font style=&quot;font-size: 13px;&quot;&gt;}&lt;/font&gt;&lt;font style=&quot;font-size: 13px;&quot;&gt;&lt;br&gt;&lt;/font&gt;&lt;/font&gt;&lt;/div&gt;" style="text;strokeColor=#666666;fillColor=#f5f5f5;align=left;verticalAlign=middle;spacingLeft=4;spacingRight=4;overflow=hidden;points=[[0,0.5],[1,0.5]];portConstraint=eastwest;rotatable=0;whiteSpace=wrap;html=1;fontColor=#333333;" vertex="1" parent="1OpWcTr0ya9Bk3IJLdpR-96">
          <mxGeometry y="160" width="220" height="50" as="geometry" />
        </mxCell>
        <mxCell id="1OpWcTr0ya9Bk3IJLdpR-101" style="edgeStyle=orthogonalEdgeStyle;rounded=0;orthogonalLoop=1;jettySize=auto;html=1;entryX=0.5;entryY=0;entryDx=0;entryDy=0;startArrow=oval;startFill=1;exitX=1;exitY=0.5;exitDx=0;exitDy=0;" edge="1" parent="1OpWcTr0ya9Bk3IJLdpR-13" source="1OpWcTr0ya9Bk3IJLdpR-100" target="1OpWcTr0ya9Bk3IJLdpR-87">
          <mxGeometry relative="1" as="geometry">
            <Array as="points">
              <mxPoint x="1900" y="975" />
              <mxPoint x="1900" y="530" />
              <mxPoint x="2180" y="530" />
            </Array>
          </mxGeometry>
        </mxCell>
        <mxCell id="1OpWcTr0ya9Bk3IJLdpR-102" style="edgeStyle=orthogonalEdgeStyle;rounded=0;orthogonalLoop=1;jettySize=auto;html=1;entryX=0.5;entryY=0;entryDx=0;entryDy=0;exitX=0.5;exitY=0.5;exitDx=0;exitDy=0;exitPerimeter=0;startArrow=oval;startFill=1;" edge="1" parent="1OpWcTr0ya9Bk3IJLdpR-13" source="1OpWcTr0ya9Bk3IJLdpR-68" target="1OpWcTr0ya9Bk3IJLdpR-96">
          <mxGeometry relative="1" as="geometry">
            <Array as="points">
              <mxPoint x="1310" y="975" />
              <mxPoint x="1310" y="760" />
              <mxPoint x="1580" y="760" />
            </Array>
          </mxGeometry>
        </mxCell>
        <mxCell id="1OpWcTr0ya9Bk3IJLdpR-103" value="&lt;div style=&quot;font-size: 11px;&quot;&gt;&lt;font style=&quot;font-size: 11px;&quot;&gt;void pageInfo()&lt;/font&gt;&lt;/div&gt;&lt;div style=&quot;font-size: 11px;&quot; align=&quot;left&quot;&gt;&lt;font style=&quot;font-size: 11px;&quot;&gt;&lt;font style=&quot;font-size: 11px;&quot;&gt;&amp;nbsp;&amp;nbsp; switch(page)&lt;/font&gt;&lt;font style=&quot;font-size: 11px;&quot;&gt;&lt;br&gt;&lt;/font&gt;&lt;/font&gt;&lt;/div&gt;" style="rounded=1;whiteSpace=wrap;html=1;" vertex="1" parent="1OpWcTr0ya9Bk3IJLdpR-13">
          <mxGeometry x="1140" y="260" width="80" height="40" as="geometry" />
        </mxCell>
        <mxCell id="1OpWcTr0ya9Bk3IJLdpR-104" style="edgeStyle=orthogonalEdgeStyle;rounded=0;orthogonalLoop=1;jettySize=auto;html=1;" edge="1" parent="1OpWcTr0ya9Bk3IJLdpR-13" source="1OpWcTr0ya9Bk3IJLdpR-53" target="1OpWcTr0ya9Bk3IJLdpR-103">
          <mxGeometry relative="1" as="geometry" />
        </mxCell>
        <mxCell id="1OpWcTr0ya9Bk3IJLdpR-105" value="&lt;div style=&quot;font-size: 11px;&quot;&gt;&lt;font style=&quot;font-size: 11px;&quot;&gt;void pageInfo()&lt;/font&gt;&lt;/div&gt;&lt;div style=&quot;font-size: 11px;&quot; align=&quot;left&quot;&gt;&lt;font style=&quot;font-size: 11px;&quot;&gt;&lt;font style=&quot;font-size: 11px;&quot;&gt;&amp;nbsp;&amp;nbsp; switch(page)&lt;/font&gt;&lt;font style=&quot;font-size: 11px;&quot;&gt;&lt;br&gt;&lt;/font&gt;&lt;/font&gt;&lt;/div&gt;" style="rounded=1;whiteSpace=wrap;html=1;" vertex="1" parent="1OpWcTr0ya9Bk3IJLdpR-13">
          <mxGeometry x="1150" y="550" width="80" height="40" as="geometry" />
        </mxCell>
        <mxCell id="1OpWcTr0ya9Bk3IJLdpR-106" style="edgeStyle=orthogonalEdgeStyle;rounded=0;orthogonalLoop=1;jettySize=auto;html=1;entryX=0;entryY=0.5;entryDx=0;entryDy=0;" edge="1" parent="1OpWcTr0ya9Bk3IJLdpR-13" source="1OpWcTr0ya9Bk3IJLdpR-58" target="1OpWcTr0ya9Bk3IJLdpR-105">
          <mxGeometry relative="1" as="geometry" />
        </mxCell>
        <mxCell id="1OpWcTr0ya9Bk3IJLdpR-107" value="&lt;div style=&quot;font-size: 11px;&quot;&gt;&lt;font style=&quot;font-size: 11px;&quot;&gt;void pageInfo()&lt;/font&gt;&lt;/div&gt;&lt;div style=&quot;font-size: 11px;&quot; align=&quot;left&quot;&gt;&lt;font style=&quot;font-size: 11px;&quot;&gt;&lt;font style=&quot;font-size: 11px;&quot;&gt;&amp;nbsp;&amp;nbsp; switch(page)&lt;/font&gt;&lt;font style=&quot;font-size: 11px;&quot;&gt;&lt;br&gt;&lt;/font&gt;&lt;/font&gt;&lt;/div&gt;&lt;div&gt;&amp;nbsp;&amp;nbsp;&amp;nbsp; if(isTyping)&lt;br&gt;&lt;/div&gt;" style="rounded=1;whiteSpace=wrap;html=1;" vertex="1" parent="1OpWcTr0ya9Bk3IJLdpR-13">
          <mxGeometry x="1200" y="780" width="80" height="50" as="geometry" />
        </mxCell>
        <mxCell id="1OpWcTr0ya9Bk3IJLdpR-108" style="edgeStyle=orthogonalEdgeStyle;rounded=0;orthogonalLoop=1;jettySize=auto;html=1;entryX=0;entryY=0.5;entryDx=0;entryDy=0;" edge="1" parent="1OpWcTr0ya9Bk3IJLdpR-13" source="1OpWcTr0ya9Bk3IJLdpR-65" target="1OpWcTr0ya9Bk3IJLdpR-107">
          <mxGeometry relative="1" as="geometry" />
        </mxCell>
        <mxCell id="1OpWcTr0ya9Bk3IJLdpR-109" value="&lt;div style=&quot;font-size: 11px;&quot;&gt;&lt;font style=&quot;font-size: 11px;&quot;&gt;void pageInfo()&lt;/font&gt;&lt;/div&gt;&lt;div style=&quot;font-size: 11px;&quot; align=&quot;left&quot;&gt;&lt;font style=&quot;font-size: 11px;&quot;&gt;&lt;font style=&quot;font-size: 11px;&quot;&gt;&amp;nbsp;&amp;nbsp; switch(page)&lt;/font&gt;&lt;font style=&quot;font-size: 11px;&quot;&gt;&lt;br&gt;&lt;/font&gt;&lt;/font&gt;&lt;/div&gt;" style="rounded=1;whiteSpace=wrap;html=1;" vertex="1" parent="1OpWcTr0ya9Bk3IJLdpR-13">
          <mxGeometry x="1120" y="1070" width="80" height="40" as="geometry" />
        </mxCell>
        <mxCell id="1OpWcTr0ya9Bk3IJLdpR-110" style="edgeStyle=orthogonalEdgeStyle;rounded=0;orthogonalLoop=1;jettySize=auto;html=1;entryX=0;entryY=0.5;entryDx=0;entryDy=0;" edge="1" parent="1OpWcTr0ya9Bk3IJLdpR-13" source="1OpWcTr0ya9Bk3IJLdpR-62" target="1OpWcTr0ya9Bk3IJLdpR-109">
          <mxGeometry relative="1" as="geometry" />
        </mxCell>
        <mxCell id="1OpWcTr0ya9Bk3IJLdpR-111" value="&lt;div style=&quot;font-size: 11px;&quot;&gt;&lt;font style=&quot;font-size: 11px;&quot;&gt;void pageInfo()&lt;/font&gt;&lt;/div&gt;&lt;div style=&quot;font-size: 11px;&quot; align=&quot;left&quot;&gt;&lt;font style=&quot;font-size: 11px;&quot;&gt;&lt;font style=&quot;font-size: 11px;&quot;&gt;&amp;nbsp;&amp;nbsp; switch(page)&lt;/font&gt;&lt;font style=&quot;font-size: 11px;&quot;&gt;&lt;br&gt;&lt;/font&gt;&lt;/font&gt;&lt;/div&gt;&lt;div&gt;&amp;nbsp;&amp;nbsp; if(isForce)&lt;br&gt;&lt;/div&gt;" style="rounded=1;whiteSpace=wrap;html=1;" vertex="1" parent="1OpWcTr0ya9Bk3IJLdpR-13">
          <mxGeometry x="1170" y="1320" width="80" height="60" as="geometry" />
        </mxCell>
        <mxCell id="1OpWcTr0ya9Bk3IJLdpR-112" value="changeDelay()" style="text;html=1;align=center;verticalAlign=middle;resizable=0;points=[];autosize=1;strokeColor=none;fillColor=none;" vertex="1" parent="1OpWcTr0ya9Bk3IJLdpR-13">
          <mxGeometry x="730" y="395" width="100" height="30" as="geometry" />
        </mxCell>
        <mxCell id="1OpWcTr0ya9Bk3IJLdpR-113" value="" style="edgeStyle=orthogonalEdgeStyle;rounded=0;orthogonalLoop=1;jettySize=auto;html=1;startArrow=oval;startFill=1;" edge="1" parent="1OpWcTr0ya9Bk3IJLdpR-13" source="1OpWcTr0ya9Bk3IJLdpR-44" target="1OpWcTr0ya9Bk3IJLdpR-112">
          <mxGeometry relative="1" as="geometry">
            <mxPoint x="-15" y="470" as="sourcePoint" />
            <mxPoint x="340" y="360" as="targetPoint" />
            <Array as="points" />
          </mxGeometry>
        </mxCell>
        <mxCell id="1OpWcTr0ya9Bk3IJLdpR-114" value="changeDelay()" style="text;html=1;align=center;verticalAlign=middle;resizable=0;points=[];autosize=1;strokeColor=none;fillColor=none;" vertex="1" parent="1OpWcTr0ya9Bk3IJLdpR-13">
          <mxGeometry x="730" y="590" width="100" height="30" as="geometry" />
        </mxCell>
        <mxCell id="1OpWcTr0ya9Bk3IJLdpR-115" value="" style="edgeStyle=orthogonalEdgeStyle;rounded=0;orthogonalLoop=1;jettySize=auto;html=1;startArrow=oval;startFill=1;" edge="1" parent="1OpWcTr0ya9Bk3IJLdpR-13" source="1OpWcTr0ya9Bk3IJLdpR-45" target="1OpWcTr0ya9Bk3IJLdpR-114">
          <mxGeometry relative="1" as="geometry">
            <mxPoint x="-15" y="670" as="sourcePoint" />
            <mxPoint x="345" y="640" as="targetPoint" />
            <Array as="points" />
          </mxGeometry>
        </mxCell>
        <mxCell id="1OpWcTr0ya9Bk3IJLdpR-116" value="changeDelay()" style="text;html=1;align=center;verticalAlign=middle;resizable=0;points=[];autosize=1;strokeColor=none;fillColor=none;" vertex="1" parent="1OpWcTr0ya9Bk3IJLdpR-13">
          <mxGeometry x="730" y="800" width="100" height="30" as="geometry" />
        </mxCell>
        <mxCell id="1OpWcTr0ya9Bk3IJLdpR-117" value="" style="edgeStyle=orthogonalEdgeStyle;rounded=0;orthogonalLoop=1;jettySize=auto;html=1;startArrow=oval;startFill=1;" edge="1" parent="1OpWcTr0ya9Bk3IJLdpR-13" source="1OpWcTr0ya9Bk3IJLdpR-46" target="1OpWcTr0ya9Bk3IJLdpR-116">
          <mxGeometry relative="1" as="geometry">
            <mxPoint x="-15" y="870" as="sourcePoint" />
            <mxPoint x="380" y="850" as="targetPoint" />
            <Array as="points" />
          </mxGeometry>
        </mxCell>
        <mxCell id="1OpWcTr0ya9Bk3IJLdpR-118" value="changeDelay()" style="text;html=1;align=center;verticalAlign=middle;resizable=0;points=[];autosize=1;strokeColor=none;fillColor=none;" vertex="1" parent="1OpWcTr0ya9Bk3IJLdpR-13">
          <mxGeometry x="730" y="1010" width="100" height="30" as="geometry" />
        </mxCell>
        <mxCell id="1OpWcTr0ya9Bk3IJLdpR-119" value="" style="edgeStyle=orthogonalEdgeStyle;rounded=0;orthogonalLoop=1;jettySize=auto;html=1;startArrow=oval;startFill=1;" edge="1" parent="1OpWcTr0ya9Bk3IJLdpR-13" source="1OpWcTr0ya9Bk3IJLdpR-47" target="1OpWcTr0ya9Bk3IJLdpR-118">
          <mxGeometry relative="1" as="geometry">
            <mxPoint x="-15" y="1090" as="sourcePoint" />
            <mxPoint x="340" y="1130" as="targetPoint" />
            <Array as="points" />
          </mxGeometry>
        </mxCell>
        <mxCell id="1OpWcTr0ya9Bk3IJLdpR-120" value="changeDelay()" style="text;html=1;align=center;verticalAlign=middle;resizable=0;points=[];autosize=1;strokeColor=none;fillColor=none;" vertex="1" parent="1OpWcTr0ya9Bk3IJLdpR-13">
          <mxGeometry x="730" y="1195" width="100" height="30" as="geometry" />
        </mxCell>
        <mxCell id="1OpWcTr0ya9Bk3IJLdpR-121" value="" style="edgeStyle=orthogonalEdgeStyle;rounded=0;orthogonalLoop=1;jettySize=auto;html=1;startArrow=oval;startFill=1;" edge="1" parent="1OpWcTr0ya9Bk3IJLdpR-13" source="1OpWcTr0ya9Bk3IJLdpR-48" target="1OpWcTr0ya9Bk3IJLdpR-120">
          <mxGeometry relative="1" as="geometry">
            <mxPoint x="-15" y="1270" as="sourcePoint" />
            <mxPoint x="355" y="1310" as="targetPoint" />
          </mxGeometry>
        </mxCell>
        <mxCell id="1OpWcTr0ya9Bk3IJLdpR-122" style="edgeStyle=orthogonalEdgeStyle;rounded=0;orthogonalLoop=1;jettySize=auto;html=1;entryX=0.25;entryY=1;entryDx=0;entryDy=0;" edge="1" parent="1OpWcTr0ya9Bk3IJLdpR-13" source="1OpWcTr0ya9Bk3IJLdpR-68" target="1OpWcTr0ya9Bk3IJLdpR-107">
          <mxGeometry relative="1" as="geometry">
            <Array as="points">
              <mxPoint x="1220" y="960" />
            </Array>
          </mxGeometry>
        </mxCell>
        <mxCell id="1OpWcTr0ya9Bk3IJLdpR-123" style="edgeStyle=orthogonalEdgeStyle;rounded=0;orthogonalLoop=1;jettySize=auto;html=1;entryX=0;entryY=0.5;entryDx=0;entryDy=0;" edge="1" parent="1OpWcTr0ya9Bk3IJLdpR-13" source="1OpWcTr0ya9Bk3IJLdpR-72" target="1OpWcTr0ya9Bk3IJLdpR-111">
          <mxGeometry relative="1" as="geometry">
            <mxPoint x="1140" y="1360" as="targetPoint" />
          </mxGeometry>
        </mxCell>
        <mxCell id="1OpWcTr0ya9Bk3IJLdpR-124" style="edgeStyle=orthogonalEdgeStyle;rounded=0;orthogonalLoop=1;jettySize=auto;html=1;" edge="1" parent="1OpWcTr0ya9Bk3IJLdpR-13" source="1OpWcTr0ya9Bk3IJLdpR-73">
          <mxGeometry relative="1" as="geometry">
            <mxPoint x="1220" y="1380" as="targetPoint" />
            <Array as="points">
              <mxPoint x="1220" y="1420" />
            </Array>
          </mxGeometry>
        </mxCell>
        <mxCell id="1OpWcTr0ya9Bk3IJLdpR-125" style="edgeStyle=orthogonalEdgeStyle;rounded=0;orthogonalLoop=1;jettySize=auto;html=1;entryX=0.366;entryY=1.005;entryDx=0;entryDy=0;entryPerimeter=0;" edge="1" parent="1OpWcTr0ya9Bk3IJLdpR-13" source="1OpWcTr0ya9Bk3IJLdpR-74" target="1OpWcTr0ya9Bk3IJLdpR-111">
          <mxGeometry relative="1" as="geometry">
            <mxPoint x="1160" y="1380" as="targetPoint" />
            <Array as="points">
              <mxPoint x="1200" y="1480" />
              <mxPoint x="1200" y="1380" />
            </Array>
          </mxGeometry>
        </mxCell>
        <mxCell id="1OpWcTr0ya9Bk3IJLdpR-126" style="edgeStyle=orthogonalEdgeStyle;rounded=0;orthogonalLoop=1;jettySize=auto;html=1;" edge="1" parent="1OpWcTr0ya9Bk3IJLdpR-13" source="1OpWcTr0ya9Bk3IJLdpR-75">
          <mxGeometry relative="1" as="geometry">
            <mxPoint x="1180" y="1380" as="targetPoint" />
            <Array as="points">
              <mxPoint x="1180" y="1540" />
            </Array>
          </mxGeometry>
        </mxCell>
        <mxCell id="1OpWcTr0ya9Bk3IJLdpR-127" value="changin = true" style="rounded=1;whiteSpace=wrap;html=1;" vertex="1" parent="1">
          <mxGeometry x="80" y="203" width="90" height="35" as="geometry" />
        </mxCell>
      </root>
    </mxGraphModel>
  </diagram>
</mxfile>
